<svg xmlns="http://www.w3.org/2000/svg" viewBox="0 0 301.28 353.69"><title>account_icon_coloured</title><g id="Colour"><path id="Shoulder" d="M354.25,297l40.67,58a8.94,8.94,0,0,1-1.51,3.77c-4.67,6.56-18,4.4-22.59,3.76-2.71-.37-22.39,1-61.75,3.77-15.27,1.07-26,3-47.44,6.78a725,725,0,0,0-82.08,19.57,206.61,206.61,0,0,1,27.86-35.39C217.59,346.94,265,301,334.68,297A170.05,170.05,0,0,1,354.25,297Z" transform="translate(-97.42 -42.4)" style="fill:#5b636e"/><path id="SShadow" d="M336.18,297C358,321.59,359.85,333.59,356.51,340c-4.64,8.87-19.38,6.83-46.68,15.06a199.83,199.83,0,0,0-39.16,16.57c45.36-5.16,66.67-6.95,77.56-7.53,8-.43,16.09-2.35,24.1-1.51,5.86.62,12.5,2.09,18.82-1.5a18.81,18.81,0,0,0,5.28-4.52,309.92,309.92,0,0,1-23.35-34.64c-6.1-10.58-10.72-18.45-20.33-22.59A32.91,32.91,0,0,0,336.18,297Z" transform="translate(-97.42 -42.4)" style="fill:#343a42"/><path id="FShadow" d="M266.9,287.25V313.6l75.31-21.08q-.76-38.79-1.51-77.56l-42.92-25.61a224.77,224.77,0,0,1-97.15,120.49,89.19,89.19,0,0,0,66.27-22.59Z" transform="translate(-97.42 -42.4)" style="fill:#debc97"/><path id="Face" d="M192.35,149.44,157.71,233a30.23,30.23,0,0,0,25.6,10.54q8.67,34.26,17.32,68.53a240.34,240.34,0,0,0,97.15-122.75L221,139.65Z" transform="translate(-97.42 -42.4)" style="fill:#f5d2ab"/><path id="Top" d="M346.72,73.38c-24.38-14.91-46-19.46-58.73-21.08-10.21-1.3-20.72-2.53-33.89.75-19.86,5-32.28,16.81-39.91,24.1a114.64,114.64,0,0,0-26.36,38.4l-58,22.59a82.09,82.09,0,0,0,92.62,0,110.65,110.65,0,0,1,18.07-32.38c6.63-8.21,22.13-26.88,49.71-34.64C316.14,63.84,338.06,70.29,346.72,73.38Z" transform="translate(-97.42 -42.4)" style="fill:#747e8c"/><path id="Base" d="M347.48,77.15A74.07,74.07,0,0,1,361,105.76c4.56,20.28-1.25,37-7.53,55a182.84,182.84,0,0,1-23.84,45.93L223.22,141.91a113.82,113.82,0,0,1,24.1-40.66c5.92-6.41,16.73-17.87,33.89-24.86C310.61,64.43,338.63,73.78,347.48,77.15Z" transform="translate(-97.42 -42.4)" style="fill:#5b636e"/><path id="Shadow" d="M354.25,248.84c-4.87-10-4.26-16.9-3-21.08,1.16-3.89,2.94-5.71,8.29-13.56,3.68-5.41,7-11.06,10.54-16.56,7.27-11.34,23.93-52.79,5.27-89.62a81.34,81.34,0,0,0-22.59-27.11c14.51,24.83,13.83,43.41,12.05,53.47-1.14,6.39-3.12,11.62-12.05,30.12-6.08,12.6-14.13,28.75-24.1,47.44a34.71,34.71,0,0,0,2.26,15.82C336.89,242.75,351.71,248,354.25,248.84Z" transform="translate(-97.42 -42.4)" style="fill:#343a42"/><path id="Pipe" d="M178,268.42l-48.19,73.05H102c-.61,1.65-4.47,12.5,1.51,23.34a27.91,27.91,0,0,0,13.56,12.05,26.2,26.2,0,0,0,18.07,2.26c9.14-2.3,13.92-9.21,15.81-12.05,6.16-9.21,6-19.31,6-21.84C157,333,162.27,311,184.82,268.42Z" transform="translate(-97.42 -42.4)" style="fill:#8c6239"/><path id="Shadow-2" data-name="Shadow" d="M157.71,336.71c-.33,15.82-11.49,28.83-25.6,31.11-11.34,1.84-23.13-3.49-30.13-13.55,0,1.57.13,11.58,8.29,18.83,9.83,8.72,22.4,5.52,23.34,5.27a30.54,30.54,0,0,0,12.8-6C161.19,360.36,158,338.35,157.71,336.71Z" transform="translate(-97.42 -42.4)" style="fill:#754c24"/></g><g id="Face-2" data-name="Face"><path id="Face-3" data-name="Face" d="M191.6,153.21l-33.89,79.07a22.38,22.38,0,0,0,7.53,7.53c7.95,4.76,16.27,2.74,18.07,2.26l18.08,70a123.06,123.06,0,0,0,39.91-9c30.18-12.43,47.52-33.85,55-44.43" transform="translate(-97.42 -42.4)" style="fill:none;stroke:#000;stroke-linecap:round;stroke-linejoin:round;stroke-width:6px"/><path id="Neck" d="M342.21,292.52V243.57" transform="translate(-97.42 -42.4)" style="fill:none;stroke:#000;stroke-linecap:round;stroke-linejoin:round;stroke-width:8px"/><g id="Shoulder-2" data-name="Shoulder"><path d="M381.36,333.94l-16.69-24.83c-6.14-9.12-20.13-15.79-31.09-14.81,0,0-39.56,3.53-81.74,27.59C208.5,346.61,185,380.07,185,380.07c-6.32,9-2.79,14.06,7.84,11.24,0,0,60.48-16.05,110.2-22,35.42-4.22,77.14-4.93,77.14-4.93,11-.19,17.06-4.63,13.47-9.88l-3.26-4.77" transform="translate(-97.42 -42.4)" style="fill:none;stroke:#000;stroke-linecap:round;stroke-linejoin:round;stroke-width:8px"/></g></g><g id="Hat"><path id="Base-2" data-name="Base" d="M219.19,140,329.24,208.1a34.09,34.09,0,0,0,.68,17.19c5.19,16.61,21.9,22.64,24.08,23.39-2.31-6.51-4.35-15.84-.69-24.76a29.12,29.12,0,0,1,8.25-11c12.64-11.32,24.93-42,22.82-71.75-.24-3.3-3.83-44.62-37.66-70C327.57,56.73,306.83,53.52,294,51.54c-6.59-1-22-3.39-36.9-.75-43.38,7.66-66.89,54.69-70.93,63.08L124.28,138c7.19,4.61,28.15,16.72,56.4,14.44A89.55,89.55,0,0,0,219.19,140Z" transform="translate(-97.42 -42.4)" style="fill:none;stroke:#000;stroke-linecap:round;stroke-linejoin:round;stroke-width:8px"/><path id="Line1" d="M199.25,126.94l22.3,14.53" transform="translate(-97.42 -42.4)" style="fill:none;stroke:#000;stroke-linecap:round;stroke-linejoin:round;stroke-width:8px"/><path id="Line2" d="M329.24,208.1c2.92-5.14,7.07-12.7,11.69-22,13.4-27,20.34-40.41,22-53.65,1.11-8.83,1.74-28.93-15.46-55.29-10.12-3.82-29.62-9.4-52.63-4.54-51.88,11-72.09,64.59-73.59,68.78" transform="translate(-97.42 -42.4)" style="fill:none;stroke:#000;stroke-linecap:round;stroke-linejoin:round;stroke-width:6px"/><path id="String1" d="M350.9,69.41c.37-2.49,7.86-4.69,13.41-5.15l.86-.06c.73,0,13.54-.54,16.34,5.56a8.39,8.39,0,0,1-1.65,8.89C372.83,85.34,350.22,74,350.9,69.41Z" transform="translate(-97.42 -42.4)" style="fill:none;stroke:#000;stroke-linecap:round;stroke-linejoin:round;stroke-width:6px"/><path id="String2" d="M347.48,45.52c4.65-1.05,10,4.83,11.29,10.54,1.36,6.15-1.69,13.69-5.81,14.47-5,.94-12.38-7.9-11.51-16C341.82,51.16,343.83,46.34,347.48,45.52Z" transform="translate(-97.42 -42.4)" style="fill:none;stroke:#000;stroke-linecap:round;stroke-linejoin:round;stroke-width:6px"/></g><g id="Pipe-2" data-name="Pipe"><path id="Pipe-3" data-name="Pipe" d="M130.6,339.21l45.94-70.79,10.54-.75c-23.34,46.07-29,67.82-29.37,79.07a36.83,36.83,0,0,1-4.52,17.32c-1.57,2.79-6.88,12.22-18.07,15.06a28.14,28.14,0,0,1-26.36-7.53A29.43,29.43,0,0,1,102,341.47h30.88q2.26,6.39,4.52,12.8" transform="translate(-97.42 -42.4)" style="fill:none;stroke:#000;stroke-linecap:round;stroke-linejoin:round;stroke-width:6px"/><path id="Smoke1" d="M117.8,303.06c3.28,2.13,5.35,4.4,5.27,6.78-.12,3.58-5,4.79-6,9-.76,3.19,1,6.62,3.76,9.79" transform="translate(-97.42 -42.4)" style="fill:none;stroke:#000;stroke-linecap:round;stroke-linejoin:round;stroke-width:6px"/><path id="Smoke2" d="M106.74,311.77c-2,1.29-3.25,2.67-3.21,4.12.08,2.17,3,2.91,3.66,5.49.46,1.94-.64,4-2.28,5.94" transform="translate(-97.42 -42.4)" style="fill:none;stroke:#000;stroke-linecap:round;stroke-linejoin:round;stroke-width:6px"/></g></svg>