<svg id="Layer_1" data-name="Layer 1" xmlns="http://www.w3.org/2000/svg" viewBox="0 0 313.16 344.04"><title>branch_icon_coloured</title><g id="Colour"><circle id="Base" cx="156.58" cy="187.46" r="149.97" style="fill:#a15f35"/><path id="Shadow" d="M200,66c66.41,24.58,110.45,86.75,110.27,154.38-.24,91-80.41,139.18-83.8,141.14,70.82-15.39,121.37-75.22,123.5-141.14C352.44,142.56,287.05,70.45,200,66Z" transform="translate(-43.39 -28.48)" style="fill:#754526"/><circle id="Face" cx="156.58" cy="187.46" r="119.09" style="fill:#ffdb82"/><path id="FaceShadow" d="M200,96.85c55.12,18.77,91.11,71.5,88.22,127.91-2.66,51.87-37.73,97.63-88.22,114.68,65.26-1.7,117.93-55,119.09-119.09C320.25,154.63,266.9,98.61,200,96.85v26.46" transform="translate(-43.39 -28.48)" style="fill:#c79d34"/><path id="PointerB" d="M181.59,238.73l-36.75-73.52L218.35,202Z" transform="translate(-43.39 -28.48)" style="fill:#c91302"/><path id="PointerT" d="M181.59,238.73l73.52,36.75L218.35,202Z" transform="translate(-43.39 -28.48)" style="fill:#047cc7"/></g><g id="Base-2" data-name="Base"><circle id="Base-3" data-name="Base" cx="156.58" cy="187.46" r="149.97" style="fill:none;stroke:#000;stroke-miterlimit:10;stroke-width:13.2322217534309px"/><path id="Inner" d="M125.94,120A123.44,123.44,0,0,1,200,94.77c9.28,0,45.88,1,78.41,28.51,44.87,37.95,43.14,93.45,42.91,98.35C319,269.75,288.39,299.16,282,305.06c-7.7,7.08-36.5,31.73-80.53,32.21-41.79.46-70.15-21.15-78.68-28.25-7.35-6.11-37.06-32.28-43-77.62-5.31-40.66,11.89-71,17.22-79.6" transform="translate(-43.39 -28.48)" style="fill:none;stroke:#000;stroke-linecap:round;stroke-linejoin:round;stroke-width:8.82148116895391px"/><circle id="Top" cx="156.58" cy="22.05" r="15.44" style="fill:none;stroke:#000;stroke-miterlimit:10;stroke-width:13.2322217534309px"/><line id="TipT" x1="156.58" y1="96.06" x2="156.58" y2="69.59" style="fill:none;stroke:#000;stroke-linecap:round;stroke-linejoin:round;stroke-width:8.82148116895391px"/><line id="TipB" x1="156.58" y1="306.55" x2="156.58" y2="280.08" style="fill:none;stroke:#000;stroke-linecap:round;stroke-linejoin:round;stroke-width:8.82148116895391px"/><line id="TipL" x1="63.96" y1="191.87" x2="37.49" y2="191.87" style="fill:none;stroke:#000;stroke-linecap:round;stroke-linejoin:round;stroke-width:8.82148116895391px"/><line id="TipR" x1="275.67" y1="191.87" x2="249.21" y2="191.87" style="fill:none;stroke:#000;stroke-linecap:round;stroke-linejoin:round;stroke-width:8.82148116895391px"/><path id="PointerB-2" data-name="PointerB" d="M181.59,238.73l-36.75-73.52L218.35,202Z" transform="translate(-43.39 -28.48)" style="fill:none;stroke:#000;stroke-linecap:round;stroke-linejoin:round;stroke-width:8.82148116895391px"/><path id="PointerT-2" data-name="PointerT" d="M181.59,238.73l73.52,36.75L218.35,202Z" transform="translate(-43.39 -28.48)" style="fill:none;stroke:#000;stroke-linecap:round;stroke-linejoin:round;stroke-width:8.82148116895391px"/></g></svg>