<svg xmlns="http://www.w3.org/2000/svg" viewBox="0 0 308.36 578.18"><title>home_icon_coloured</title><g id="Colour"><g id="Frame1"><path d="M447.35,135.57V568.44a13.82,13.82,0,0,1-13.77,13.77H166.52a13.81,13.81,0,0,1-13.77-13.77V135.57" transform="translate(-145.08 -10.91)" style="fill:#5b677d"/></g><path id="Frame2" d="M447.35,141.69C435.3,71.3,374,19.11,302.8,17.82c-73.18-1.33-137.63,51.48-150,123.87" transform="translate(-145.08 -10.91)" style="fill:#5b677d"/><rect id="FShadow1" x="274.63" y="124.66" width="26.84" height="443.17" style="fill:#424f66"/><path id="FShadow2" d="M423,142.71A269.18,269.18,0,0,0,309.22,18.13,171.48,171.48,0,0,1,452,142.71Z" transform="translate(-145.08 -10.91)" style="fill:#424f66"/><rect id="SqShadow1" x="106.19" y="150.05" width="11.01" height="53.69" style="fill:#424f66"/><rect id="SqShadow2" x="241.21" y="148.45" width="11.01" height="53.69" style="fill:#424f66"/><rect id="RecShadow1" x="106.19" y="240.91" width="14.95" height="122.52" style="fill:#424f66"/><rect id="RecShadow2" x="239.25" y="240.91" width="14.95" height="122.52" style="fill:#424f66"/><rect id="RecShadow3" x="104.23" y="390.96" width="14.95" height="122.52" style="fill:#424f66"/><rect id="RecShadow4" x="239.5" y="390.96" width="14.95" height="122.52" style="fill:#424f66"/></g><g id="Base"><g id="Frame1-2" data-name="Frame1"><path d="M446.56,144.44v424a13.82,13.82,0,0,1-13.77,13.77H165.73A13.82,13.82,0,0,1,152,568.44v-424" transform="translate(-145.08 -10.91)" style="fill:none;stroke:#000;stroke-linecap:round;stroke-linejoin:round;stroke-width:13.7661449794756px"/></g><path id="Frame2-2" data-name="Frame2" d="M152,141.69C164.38,69.3,228.83,16.49,302,17.82c71.19,1.29,132.5,53.48,144.55,123.87" transform="translate(-145.08 -10.91)" style="fill:none;stroke:#000;stroke-linecap:round;stroke-linejoin:round;stroke-width:13.7661449794756px"/><rect id="Sq1" x="50.93" y="150.05" width="70.21" height="53.69" style="fill:none;stroke:#000;stroke-linecap:round;stroke-linejoin:round;stroke-width:11.0129159835804px"/><rect id="Sq2" x="185.84" y="150.05" width="70.21" height="53.69" style="fill:none;stroke:#000;stroke-linecap:round;stroke-linejoin:round;stroke-width:11.0129159835804px"/><rect id="R1" x="50.93" y="240.91" width="70.21" height="122.52" style="fill:none;stroke:#000;stroke-linecap:round;stroke-linejoin:round;stroke-width:11.0129159835804px"/><rect id="R2" x="185.84" y="240.91" width="70.21" height="122.52" style="fill:none;stroke:#000;stroke-linecap:round;stroke-linejoin:round;stroke-width:11.0129159835804px"/><rect id="R3" x="52.31" y="390.96" width="70.21" height="122.52" style="fill:none;stroke:#000;stroke-linecap:round;stroke-linejoin:round;stroke-width:11.0129159835804px"/><rect id="R4" x="187.22" y="390.96" width="70.21" height="122.52" style="fill:none;stroke:#000;stroke-linecap:round;stroke-linejoin:round;stroke-width:11.0129159835804px"/><circle id="Knob" cx="273.95" cy="377.19" r="9.64" style="stroke:#000;stroke-linecap:round;stroke-linejoin:round;stroke-width:5.50645799179022px"/><line id="Mailbox" x1="136.28" y1="377.19" x2="170.7" y2="377.19" style="stroke:#000;stroke-linecap:round;stroke-linejoin:round;stroke-width:12.389530481528px"/><line id="TopLine" x1="38.55" y1="115.64" x2="271.19" y2="115.64" style="fill:none;stroke:#000;stroke-linecap:round;stroke-linejoin:round;stroke-width:13.7661449794756px"/></g><g id="_221B" data-name="221B"><g id="B"><line id="B1" x1="196.66" y1="54.84" x2="196.66" y2="82.66" style="fill:none;stroke:#000;stroke-linecap:round;stroke-linejoin:round;stroke-width:8.25968698768534px"/><g id="B2"><path d="M341.74,65.75h7.5c4.12,0,7.49,2.82,7.49,6.26s-3.37,6.27-7.49,6.27h-7.5" transform="translate(-145.08 -10.91)" style="fill:none;stroke:#000;stroke-linecap:round;stroke-linejoin:round;stroke-width:8.25968698768534px"/></g><g id="B3"><path d="M341.74,81.21h7.5c4.12,0,7.49,2.81,7.49,6.26s-3.37,6.27-7.49,6.27h-7.5" transform="translate(-145.08 -10.91)" style="fill:none;stroke:#000;stroke-linecap:round;stroke-linejoin:round;stroke-width:8.25968698768534px"/></g></g><path id="_2" data-name="2" d="M239,70.75c2-3.18,5.3-5,8.53-4.75,4.13.37,6.81,4.08,7.59,6.64,1.85,6-4.06,14.7-15.17,20.87h18" transform="translate(-145.08 -10.91)" style="fill:none;stroke:#000;stroke-linecap:round;stroke-linejoin:round;stroke-width:8.25968698768534px"/><path id="_2-2" data-name="2" d="M270,70.75c2-3.18,5.3-5,8.53-4.75,4.13.37,6.81,4.08,7.59,6.64,1.85,6-4.06,14.7-15.17,20.87h18" transform="translate(-145.08 -10.91)" style="fill:none;stroke:#000;stroke-linecap:round;stroke-linejoin:round;stroke-width:8.25968698768534px"/><path id="_1" data-name="1" d="M300.05,70.42l9.17-4.59V93.65" transform="translate(-145.08 -10.91)" style="fill:none;stroke:#000;stroke-linecap:round;stroke-linejoin:round;stroke-width:8.25968698768534px"/></g></svg>