<svg xmlns="http://www.w3.org/2000/svg" viewBox="0 0 301.28 353.69"><title>account_icon_outline</title><g id="Face"><path id="Face-2" data-name="Face" d="M191.6,153.21l-33.89,79.07a22.38,22.38,0,0,0,7.53,7.53c7.95,4.76,16.27,2.74,18.07,2.26l18.08,70a123.06,123.06,0,0,0,39.91-9c30.18-12.43,47.52-33.85,55-44.43" transform="translate(-97.42 -42.4)" style="fill:none;stroke:#000;stroke-linecap:round;stroke-linejoin:round;stroke-width:6px"/><path id="Neck" d="M342.21,292.52V243.57" transform="translate(-97.42 -42.4)" style="fill:none;stroke:#000;stroke-linecap:round;stroke-linejoin:round;stroke-width:8px"/><g id="Shoulder"><path d="M381.36,333.94l-16.69-24.83c-6.14-9.12-20.13-15.79-31.09-14.81,0,0-39.56,3.53-81.74,27.59C208.5,346.61,185,380.07,185,380.07c-6.32,9-2.79,14.06,7.84,11.24,0,0,60.48-16.05,110.2-22,35.42-4.22,77.14-4.93,77.14-4.93,11-.19,17.06-4.63,13.47-9.88l-3.26-4.77" transform="translate(-97.42 -42.4)" style="fill:none;stroke:#000;stroke-linecap:round;stroke-linejoin:round;stroke-width:8px"/></g></g><g id="Hat"><path id="Base" d="M219.19,140,329.24,208.1a34.09,34.09,0,0,0,.68,17.19c5.19,16.61,21.9,22.64,24.08,23.39-2.31-6.51-4.35-15.84-.69-24.76a29.12,29.12,0,0,1,8.25-11c12.64-11.32,24.93-42,22.82-71.75-.24-3.3-3.83-44.62-37.66-70C327.57,56.73,306.83,53.52,294,51.54c-6.59-1-22-3.39-36.9-.75-43.38,7.66-66.89,54.69-70.93,63.08L124.28,138c7.19,4.61,28.15,16.72,56.4,14.44A89.55,89.55,0,0,0,219.19,140Z" transform="translate(-97.42 -42.4)" style="fill:none;stroke:#000;stroke-linecap:round;stroke-linejoin:round;stroke-width:8px"/><path id="Line1" d="M199.25,126.94l22.3,14.53" transform="translate(-97.42 -42.4)" style="fill:none;stroke:#000;stroke-linecap:round;stroke-linejoin:round;stroke-width:8px"/><path id="Line2" d="M329.24,208.1c2.92-5.14,7.07-12.7,11.69-22,13.4-27,20.34-40.41,22-53.65,1.11-8.83,1.74-28.93-15.46-55.29-10.12-3.82-29.62-9.4-52.63-4.54-51.88,11-72.09,64.59-73.59,68.78" transform="translate(-97.42 -42.4)" style="fill:none;stroke:#000;stroke-linecap:round;stroke-linejoin:round;stroke-width:6px"/><path id="String1" d="M350.9,69.41c.37-2.49,7.86-4.69,13.41-5.15l.86-.06c.73,0,13.54-.54,16.34,5.56a8.39,8.39,0,0,1-1.65,8.89C372.83,85.34,350.22,74,350.9,69.41Z" transform="translate(-97.42 -42.4)" style="fill:none;stroke:#000;stroke-linecap:round;stroke-linejoin:round;stroke-width:6px"/><path id="String2" d="M347.48,45.52c4.65-1.05,10,4.83,11.29,10.54,1.36,6.15-1.69,13.69-5.81,14.47-5,.94-12.38-7.9-11.51-16C341.82,51.16,343.83,46.34,347.48,45.52Z" transform="translate(-97.42 -42.4)" style="fill:none;stroke:#000;stroke-linecap:round;stroke-linejoin:round;stroke-width:6px"/></g><g id="Pipe"><path id="Pipe-2" data-name="Pipe" d="M130.6,339.21l45.94-70.79,10.54-.75c-23.34,46.07-29,67.82-29.37,79.07a36.83,36.83,0,0,1-4.52,17.32c-1.57,2.79-6.88,12.22-18.07,15.06a28.14,28.14,0,0,1-26.36-7.53A29.43,29.43,0,0,1,102,341.47h30.88q2.26,6.39,4.52,12.8" transform="translate(-97.42 -42.4)" style="fill:none;stroke:#000;stroke-linecap:round;stroke-linejoin:round;stroke-width:6px"/><path id="Smoke1" d="M117.8,303.06c3.28,2.13,5.35,4.4,5.27,6.78-.12,3.58-5,4.79-6,9-.76,3.19,1,6.62,3.76,9.79" transform="translate(-97.42 -42.4)" style="fill:none;stroke:#000;stroke-linecap:round;stroke-linejoin:round;stroke-width:6px"/><path id="Smoke2" d="M106.74,311.77c-2,1.29-3.25,2.67-3.21,4.12.08,2.17,3,2.91,3.66,5.49.46,1.94-.64,4-2.28,5.94" transform="translate(-97.42 -42.4)" style="fill:none;stroke:#000;stroke-linecap:round;stroke-linejoin:round;stroke-width:6px"/></g></svg>