<svg id="Layer_1" data-name="Layer 1" xmlns="http://www.w3.org/2000/svg" viewBox="0 0 313.16 344.04"><title>branch_icon_outline</title><g id="Base"><circle id="Base-2" data-name="Base" cx="156.58" cy="187.46" r="149.97" style="fill:none;stroke:#000;stroke-miterlimit:10;stroke-width:13.2322217534309px"/><path id="Inner" d="M125.94,120A123.44,123.44,0,0,1,200,94.77c9.28,0,45.88,1,78.41,28.51,44.87,37.95,43.14,93.45,42.91,98.35C319,269.75,288.39,299.16,282,305.06c-7.7,7.08-36.5,31.73-80.53,32.21-41.79.46-70.15-21.15-78.68-28.25-7.35-6.11-37.06-32.28-43-77.62-5.31-40.66,11.89-71,17.22-79.6" transform="translate(-43.39 -28.48)" style="fill:none;stroke:#000;stroke-linecap:round;stroke-linejoin:round;stroke-width:8.82148116895391px"/><circle id="Top" cx="156.58" cy="22.05" r="15.44" style="fill:none;stroke:#000;stroke-miterlimit:10;stroke-width:13.2322217534309px"/><line id="TipT" x1="156.58" y1="96.06" x2="156.58" y2="69.59" style="fill:none;stroke:#000;stroke-linecap:round;stroke-linejoin:round;stroke-width:8.82148116895391px"/><line id="TipB" x1="156.58" y1="306.55" x2="156.58" y2="280.08" style="fill:none;stroke:#000;stroke-linecap:round;stroke-linejoin:round;stroke-width:8.82148116895391px"/><line id="TipL" x1="63.96" y1="191.87" x2="37.49" y2="191.87" style="fill:none;stroke:#000;stroke-linecap:round;stroke-linejoin:round;stroke-width:8.82148116895391px"/><line id="TipR" x1="275.67" y1="191.87" x2="249.21" y2="191.87" style="fill:none;stroke:#000;stroke-linecap:round;stroke-linejoin:round;stroke-width:8.82148116895391px"/><path id="PointerB" d="M181.59,238.73l-36.75-73.52L218.35,202Z" transform="translate(-43.39 -28.48)" style="fill:none;stroke:#000;stroke-linecap:round;stroke-linejoin:round;stroke-width:8.82148116895391px"/><path id="PointerT" d="M181.59,238.73l73.52,36.75L218.35,202Z" transform="translate(-43.39 -28.48)" style="fill:none;stroke:#000;stroke-linecap:round;stroke-linejoin:round;stroke-width:8.82148116895391px"/></g></svg>