<svg xmlns="http://www.w3.org/2000/svg" viewBox="0 0 310.6 440.35"><title>menu_icon_outline</title><g id="Base"><g id="Top"><path d="M202.18,63.74V80.26a20.7,20.7,0,0,0,20.64,20.64h57.8a20.7,20.7,0,0,0,20.64-20.64V63.74" transform="translate(-95.86 -23.04)" style="fill:none;stroke:#000;stroke-linejoin:round;stroke-width:11.0091743119272px"/></g><g id="Handle"><path d="M225.19,57.14l-.08-14c0-7.72,10.76-14,24-14s24.08,6.32,24.08,14v14" transform="translate(-95.86 -23.04)" style="fill:none;stroke:#000;stroke-linecap:round;stroke-linejoin:round;stroke-width:12.0412844036704px"/></g><polyline id="ILLine" points="82.93 62.72 32.01 62.72 32.01 408.14 275.59 408.14 275.59 383.56" style="fill:none;stroke:#000;stroke-linecap:round;stroke-linejoin:round;stroke-width:11.0091743119272px"/><polyline id="IRLine" points="230.17 62.72 275.59 62.72 275.59 353.09" style="fill:none;stroke:#000;stroke-linecap:round;stroke-linejoin:round;stroke-width:11.0091743119272px"/><g id="Base-2" data-name="Base"><rect x="6.88" y="37.14" width="296.84" height="396.33" rx="27.52" style="fill:none;stroke:#000;stroke-linecap:round;stroke-linejoin:round;stroke-width:13.761467889909px"/></g></g><g id="MENU"><g id="U"><path d="M311.94,151v27.69c0,7.57,5.42,13.76,12,13.76s12-6.19,12-13.76V151" transform="translate(-95.86 -23.04)" style="fill:none;stroke:#000;stroke-linecap:round;stroke-linejoin:round;stroke-width:11.0091743119272px"/></g><path id="N" d="M266.48,192.49V150.71l26.74,41.78V151" transform="translate(-95.86 -23.04)" style="fill:none;stroke:#000;stroke-linecap:round;stroke-linejoin:round;stroke-width:11.0091743119272px"/><g id="E"><line id="E2" x1="129.21" y1="128" x2="154.61" y2="128" style="fill:none;stroke:#000;stroke-linecap:round;stroke-linejoin:round;stroke-width:11.0091743119272px"/><line id="E4" x1="126.45" y1="169.46" x2="151.86" y2="169.46" style="fill:none;stroke:#000;stroke-linecap:round;stroke-linejoin:round;stroke-width:11.0091743119272px"/><line id="E3" x1="127.79" y1="148.06" x2="142.5" y2="148.06" style="fill:none;stroke:#000;stroke-linecap:round;stroke-linejoin:round;stroke-width:11.0091743119272px"/><line id="E1" x1="126.45" y1="128" x2="126.45" y2="169.46" style="fill:none;stroke:#000;stroke-linecap:round;stroke-linejoin:round;stroke-width:11.0091743119272px"/></g><polyline id="M" points="75.01 169.62 75.01 127.84 91.73 161.26 108.44 127.84 108.44 169.62" style="fill:none;stroke:#000;stroke-linecap:round;stroke-linejoin:round;stroke-width:11.0091743119272px"/></g><g id="Lines"><g id="L5"><line id="L2" x1="71.92" y1="329.7" x2="168.25" y2="329.7" style="fill:none;stroke:#000;stroke-linecap:round;stroke-linejoin:round;stroke-width:11.0091743119272px"/><line id="L1" x1="226.04" y1="329.7" x2="237.05" y2="329.7" style="fill:none;stroke:#000;stroke-linecap:round;stroke-linejoin:round;stroke-width:11.0091743119272px"/></g><g id="L4"><line id="L1-2" data-name="L1" x1="71.92" y1="299.42" x2="237.05" y2="299.42" style="fill:none;stroke:#000;stroke-linecap:round;stroke-linejoin:round;stroke-width:11.0091743119272px"/></g><g id="L3"><line id="L2-2" data-name="L2" x1="226.04" y1="269.15" x2="237.05" y2="269.15" style="fill:none;stroke:#000;stroke-linecap:round;stroke-linejoin:round;stroke-width:11.0091743119272px"/><line id="L1-3" data-name="L1" x1="71.92" y1="269.15" x2="168.25" y2="269.15" style="fill:none;stroke:#000;stroke-linecap:round;stroke-linejoin:round;stroke-width:11.0091743119272px"/></g><g id="L2-3" data-name="L2"><line id="L2-4" data-name="L2" x1="226.04" y1="238.87" x2="237.05" y2="238.87" style="fill:none;stroke:#000;stroke-linecap:round;stroke-linejoin:round;stroke-width:11.0091743119272px"/><line id="L1-4" data-name="L1" x1="71.92" y1="238.87" x2="206.78" y2="238.87" style="fill:none;stroke:#000;stroke-linecap:round;stroke-linejoin:round;stroke-width:11.0091743119272px"/></g><g id="L1-5" data-name="L1"><line id="L1-6" data-name="L1" x1="71.92" y1="205.84" x2="237.05" y2="205.84" style="fill:none;stroke:#000;stroke-linecap:round;stroke-linejoin:round;stroke-width:11.0091743119272px"/></g></g></svg>