<svg id="Layer_1" data-name="Layer 1" xmlns="http://www.w3.org/2000/svg" viewBox="0 0 193.34 315.78"><title>location_icon</title><path id="Left" d="M199.53,358.07c-12.32-28.57-24-50.93-32.18-65.77-29-52.55-49.4-74.49-56.6-116.19a169.55,169.55,0,0,1-1.59-45.28c1.13-7.78,5.76-32.82,27.59-53.5,25.39-24,55.88-25,62.78-25" transform="translate(-103.33 -47.3)" style="fill:none;stroke:#877156;stroke-linecap:round;stroke-linejoin:round;stroke-width:10px"/><path id="Right" d="M200.47,358.07c12.32-28.57,24-50.93,32.18-65.77,29-52.55,49.4-74.49,56.6-116.19a169.55,169.55,0,0,0,1.59-45.28c-1.13-7.78-5.76-32.82-27.59-53.5-25.39-24-55.88-25-62.78-25" transform="translate(-103.33 -47.3)" style="fill:none;stroke:#877156;stroke-linecap:round;stroke-linejoin:round;stroke-width:10px"/><circle id="Dot" cx="96.67" cy="102.81" r="36.3" style="fill:none;stroke:#877156;stroke-linecap:round;stroke-linejoin:round;stroke-width:10px"/></svg>