<svg id="Layer_1" data-name="Layer 1" xmlns="http://www.w3.org/2000/svg" viewBox="0 0 231.77 296.78"><title>orders_icon</title><line id="Left" x1="4.23" y1="5.85" x2="4.23" y2="289.56" style="fill:none;stroke:#f2f2f2;stroke-linecap:round;stroke-linejoin:round;stroke-width:8.45844638318115px"/><line id="Right" x1="226.77" y1="5.85" x2="226.48" y2="289.55" style="fill:none;stroke:#f2f2f2;stroke-linecap:round;stroke-linejoin:round;stroke-width:10px"/><g id="TopLine"><polyline points="5.45 5 27.55 25 49.65 5 71.75 25 93.86 5 115.96 25 138.06 5 160.17 25 182.27 5 204.38 25 226.49 5" style="fill:none;stroke:#f2f2f2;stroke-linecap:round;stroke-linejoin:round;stroke-width:10px"/></g><g id="BotLine"><polyline points="226.49 291.78 204.39 271.78 182.29 291.78 160.19 271.78 138.09 291.78 115.98 271.78 93.88 291.78 71.77 271.78 49.67 291.78 27.56 271.78 5.45 291.78" style="fill:none;stroke:#f2f2f2;stroke-linecap:round;stroke-linejoin:round;stroke-width:10px"/></g><g id="Lines"><line id="L2" x1="187.53" y1="147.23" x2="198.54" y2="147.23" style="fill:none;stroke:#f2f2f2;stroke-linecap:round;stroke-linejoin:round;stroke-width:8px"/><line id="L1" x1="33.4" y1="147.23" x2="129.73" y2="147.23" style="fill:none;stroke:#f2f2f2;stroke-linecap:round;stroke-linejoin:round;stroke-width:8px"/><line id="L2-2" data-name="L2" x1="187.53" y1="116.95" x2="198.54" y2="116.95" style="fill:none;stroke:#f2f2f2;stroke-linecap:round;stroke-linejoin:round;stroke-width:8px"/><line id="L1-2" data-name="L1" x1="33.4" y1="116.95" x2="168.26" y2="116.95" style="fill:none;stroke:#f2f2f2;stroke-linecap:round;stroke-linejoin:round;stroke-width:8px"/><line id="L1-3" data-name="L1" x1="33.4" y1="83.93" x2="198.54" y2="83.93" style="fill:none;stroke:#f2f2f2;stroke-linecap:round;stroke-linejoin:round;stroke-width:8px"/></g><path id="Dollar" d="M277.89,226.44c.4-7.93-6-14.09-12.52-13.77-7.24.34-11.82,8.43-11,13.77.5,3.41,3,4.56,11,11.56,9.38,8.18,14.07,12.35,13.85,16-.3,5.2-7.49,11.81-15.18,10.22a13.39,13.39,0,0,1-10.15-11.11" transform="translate(-84.03 -33.44)" style="fill:none;stroke:#f2f2f2;stroke-linecap:round;stroke-linejoin:round;stroke-width:8px"/><line id="Line" x1="181.97" y1="170.81" x2="181.97" y2="240.81" style="fill:none;stroke:#f2f2f2;stroke-linecap:round;stroke-linejoin:round;stroke-width:5.63307557710723px"/></svg>