<svg id="Layer_1" data-name="Layer 1" xmlns="http://www.w3.org/2000/svg" viewBox="0 0 309.33 189.59"><title>payment_icon</title><g id="Frame"><rect x="4.99" y="4.99" width="299.35" height="179.61" rx="19.96" style="fill:none;stroke:#f2f2f2;stroke-miterlimit:10;stroke-width:9.97844163843519px"/></g><rect id="Bar" x="4.34" y="42.41" width="299.35" height="24.95" style="fill:#f2f2f2"/><g id="Box"><path d="M126.38,220.26a2.53,2.53,0,0,1,2.5,2.5v18.47a2.53,2.53,0,0,1-2.5,2.5H86.1a2.53,2.53,0,0,1-2.5-2.5V222.76a2.53,2.53,0,0,1,2.5-2.5h40.28m0-7.48H86.1a10,10,0,0,0-10,10v18.47a10,10,0,0,0,10,10h40.28a10,10,0,0,0,10-10V222.76a10,10,0,0,0-10-10Z" transform="translate(-46.09 -100.7)" style="fill:#f2f2f2"/></g><g id="L1"><line x1="126.11" y1="117.25" x2="264.15" y2="117.25" style="fill:none;stroke:#f2f2f2;stroke-linecap:round;stroke-linejoin:round;stroke-width:7.48383122882639px"/></g><g id="L2"><line x1="126.21" y1="141.36" x2="194.39" y2="141.36" style="fill:none;stroke:#f2f2f2;stroke-linecap:round;stroke-linejoin:round;stroke-width:7.48383122882639px"/></g></svg>