<svg id="Layer_1" data-name="Layer 1" xmlns="http://www.w3.org/2000/svg" viewBox="0 0 316.66 310.92"><title>settings_icon</title><g id="Circle"><path d="M199.56,144.15A55.52,55.52,0,1,1,144,199.67a55.52,55.52,0,0,1,55.52-55.52m0-66.63a122,122,0,1,0,47.56,9.63,121.42,121.42,0,0,0-47.56-9.63Z" transform="translate(-41.4 -44.21)" style="fill:#1a1a1a"/></g><polygon id="Top" points="126.39 8.33 115.29 69.4 198.57 69.4 187.46 8.33 126.39 8.33" style="fill:#1a1a1a;stroke:#1a1a1a;stroke-linecap:round;stroke-linejoin:round;stroke-width:16.6561935727493px"/><polygon id="Bottom" points="129.48 302.59 118.37 241.51 201.65 241.51 190.55 302.59 129.48 302.59" style="fill:#1a1a1a;stroke:#1a1a1a;stroke-linecap:round;stroke-linejoin:round;stroke-width:16.6561935727493px"/><polygon id="L2" points="11.71 213.71 54.8 169.02 103.44 236.62 47.38 263.28 11.71 213.71" style="fill:#1a1a1a;stroke:#1a1a1a;stroke-linecap:round;stroke-linejoin:round;stroke-width:16.6561935727493px"/><polygon id="L1" points="8.33 113.02 59.29 148.46 93.84 72.69 33.66 57.45 8.33 113.02" style="fill:#1a1a1a;stroke:#1a1a1a;stroke-linecap:round;stroke-linejoin:round;stroke-width:16.6561935727493px"/><polygon id="R2" points="304.94 213.71 261.86 169.02 213.22 236.62 269.27 263.28 304.94 213.71" style="fill:#1a1a1a;stroke:#1a1a1a;stroke-linecap:round;stroke-linejoin:round;stroke-width:16.6561935727493px"/><polygon id="R1" points="308.33 113.02 257.37 148.46 222.81 72.69 282.99 57.45 308.33 113.02" style="fill:#1a1a1a;stroke:#1a1a1a;stroke-linecap:round;stroke-linejoin:round;stroke-width:16.6561935727493px"/></svg>