<svg id="Layer_1" data-name="Layer 1" xmlns="http://www.w3.org/2000/svg" viewBox="0 0 310 327.68"><title>stamp_icon</title><g id="Base"><rect x="5" y="276.27" width="300" height="46.4" rx="10.79" style="fill:none;stroke:#f2f2f2;stroke-linecap:round;stroke-linejoin:round;stroke-width:10px"/></g><g id="LBase"><path d="M200,280.5H107.73c-16.5,0-32.32,12-35.17,26.67L70,320.5" transform="translate(-45 -46.52)" style="fill:none;stroke:#f2f2f2;stroke-linecap:round;stroke-linejoin:round;stroke-width:10px"/></g><g id="RBase"><path d="M200,280.5h92.24c16.5,0,32.32,12,35.17,26.67L330,320.5" transform="translate(-45 -46.52)" style="fill:none;stroke:#f2f2f2;stroke-linecap:round;stroke-linejoin:round;stroke-width:10px"/></g><path id="LHandle" d="M199.42,51.52c-6.09.15-21.24,1.36-34.42,12.27-17.44,14.44-19.28,35.83-19.76,41.41-3,34.12,22.39,47.22,30.84,80.25,4.93,19.27,5,48.78-20.11,91.32" transform="translate(-45 -46.52)" style="fill:none;stroke:#f2f2f2;stroke-linecap:round;stroke-linejoin:round;stroke-width:10px"/><path id="RHandle" d="M200.65,51.52c6.07.09,21.19,1.16,34.35,11.94,17.46,14.31,19.28,35.74,19.77,41.41,2.91,34.16-22.4,47.24-30.84,80.25-4.93,19.26-5,48.78,20.1,91.32" transform="translate(-45 -46.52)" style="fill:none;stroke:#f2f2f2;stroke-linecap:round;stroke-linejoin:round;stroke-width:10px"/></svg>