<svg id="Layer_1" data-name="Layer 1" xmlns="http://www.w3.org/2000/svg" viewBox="0 0 310 226.39"><title>voucher_icon</title><path id="Base" d="M49.71,110.35h300v180h-300q.26-27.78.5-55.55c16.4-4.69,27.5-19.25,27.05-35.26-.42-15.34-11.36-28.88-27.05-33.35Q50,138.26,49.71,110.35Z" transform="translate(-44.71 -68.96)" style="fill:none;stroke:#f2f2f2;stroke-linecap:round;stroke-linejoin:round;stroke-width:10px"/><g id="Dash"><line x1="72.77" y1="42.54" x2="72.73" y2="50.04" style="fill:none;stroke:#f2f2f2;stroke-linecap:round;stroke-linejoin:round;stroke-width:8px"/><line x1="72.65" y1="64.86" x2="71.89" y2="205.63" style="fill:none;stroke:#f2f2f2;stroke-linecap:round;stroke-linejoin:round;stroke-width:8px;stroke-dasharray:14.818415641784668,14.818415641784668"/><line x1="71.85" y1="213.04" x2="71.81" y2="220.54" style="fill:none;stroke:#f2f2f2;stroke-linecap:round;stroke-linejoin:round;stroke-width:8px"/></g><g id="_" data-name="%"><line id="_2" data-name="/" x1="152.29" y1="195.04" x2="250.29" y2="69.04" style="fill:none;stroke:#f2f2f2;stroke-linecap:round;stroke-linejoin:round;stroke-width:10px"/><circle id="Top" cx="169.11" cy="89.99" r="19.24" style="fill:none;stroke:#f2f2f2;stroke-linecap:round;stroke-linejoin:round;stroke-width:10px"/><circle id="Bottom" cx="233.64" cy="170.92" r="19.24" style="fill:none;stroke:#f2f2f2;stroke-linecap:round;stroke-linejoin:round;stroke-width:10px"/></g><g id="Ribbon"><path id="LBow" d="M115,108.27c-5.61,6.11-38.31-7-38-21.32.14-6.59,7.24-13.38,14-14C106.32,71.71,120.46,102.34,115,108.27Z" transform="translate(-44.71 -68.96)" style="fill:none;stroke:#f2f2f2;stroke-linecap:round;stroke-linejoin:round;stroke-width:8px"/><path id="RBow" d="M118.72,108.27c5.62,6.1,38.31-7,38-21.32-.14-6.59-7.23-13.38-14-14C127.41,71.71,113.27,102.34,118.72,108.27Z" transform="translate(-44.71 -68.96)" style="fill:none;stroke:#f2f2f2;stroke-linecap:round;stroke-linejoin:round;stroke-width:8px"/><path id="LString" d="M116,111a32.41,32.41,0,0,0-13,5c-12.71,8.47-14.69,23.33-15,26" transform="translate(-44.71 -68.96)" style="fill:none;stroke:#f2f2f2;stroke-linecap:round;stroke-linejoin:round;stroke-width:10px"/><path id="RString" d="M118.22,111a32.36,32.36,0,0,1,13,5c12.71,8.47,14.69,23.33,15,26" transform="translate(-44.71 -68.96)" style="fill:none;stroke:#f2f2f2;stroke-linecap:round;stroke-linejoin:round;stroke-width:10px"/></g></svg>