<svg id="Layer_1" data-name="Layer 1" xmlns="http://www.w3.org/2000/svg" viewBox="0 0 472.27 178.99"><title>page3logo</title><g id="Text"><g style="isolation:isolate"><path d="M13.28,265.88l-1-.37,1.77-9.27a7.62,7.62,0,0,0,4,.81H33.38a7.41,7.41,0,0,0,4-.81l1.82,9.27-1,.37c-1.73-4.14-4.14-6.23-7.46-6.78v24.15c0,2.82.68,3.73,3.55,3.91v1.27H17.15v-1.27c2.86-.18,3.59-1.09,3.59-3.91V259.1C17.33,259.69,14.92,261.87,13.28,265.88Z" transform="translate(-12.28 -158.14)"/><path d="M53.94,269.65c-1.87,0-2.46,1.41-2.46,4.28v10c0,1.87.5,2.87,1.91,3.23v1.27H40.07v-1.27h.13c2,0,2.73-1,2.73-3.23V265.69a2.55,2.55,0,0,0-1.27-2.59l-2.41-2a123.81,123.81,0,0,0,11.87-4.51v13a9.33,9.33,0,0,1,7.36-3.92c4.19,0,6.55,2.6,6.55,7.51v10.73c0,2.28.73,3.23,2.73,3.23h.14v1.27H54.57v-1.27c1.46-.41,1.91-1.36,1.91-3.23v-10C56.48,271,56,269.65,53.94,269.65Z" transform="translate(-12.28 -158.14)"/><path d="M80.49,289.39a11,11,0,0,1-8.55-4,11.34,11.34,0,0,1-2.63-7.55A12.67,12.67,0,0,1,71.9,270a11.25,11.25,0,0,1,8.73-4.32c5.68,0,9.5,3.73,9.5,9.73H77.26c.19,5.46,4,9.19,8.46,9.19A5.47,5.47,0,0,0,90,282.66v2.09A12.18,12.18,0,0,1,80.49,289.39Zm-1.23-15.6c3.19,0,4.42-.05,4.42-2.5q0-4-2.87-4c-2.55,0-3.59,2.09-3.59,6.46Z" transform="translate(-12.28 -158.14)"/><path d="M125.65,287.16v1.27H109.37v-1.27c2.86-.18,3.55-1.09,3.55-3.91v-21c0-2.82-.69-3.73-3.55-3.91v-1.28H125.7v1.28c-2.32.41-2.78,1.45-2.78,3.91v7.59h7.55v-7.59c0-2.46-.45-3.5-2.77-3.91v-1.28H144v1.28c-2.86.18-3.54,1.09-3.54,3.91v21c0,2.82.68,3.73,3.54,3.91v1.27H127.74v-1.27c2.32-.41,2.82-1.45,2.82-3.91V271.61h-7.64v11.64C122.92,285.71,123.38,286.71,125.65,287.16Z" transform="translate(-12.28 -158.14)"/><path d="M146.66,277.52c0-7.1,5.09-11.83,12.91-11.83s13,4.78,13,11.83-5.13,11.87-13,11.87S146.66,284.61,146.66,277.52Zm16.51,0c0-6.91-.37-10.14-3.6-10.14S156,270.61,156,277.52s.27,10.19,3.54,10.19S163.17,284.43,163.17,277.52Z" transform="translate(-12.28 -158.14)"/><path d="M176,263.1l-2.41-2c3.46-1.09,7.55-2.6,12.24-4.51v27.29c0,2.28.73,3.23,2.73,3.23h.13v1.27H174.44v-1.27h.14c2,0,2.73-1,2.73-3.23V265.69A2.54,2.54,0,0,0,176,263.1Z" transform="translate(-12.28 -158.14)"/><path d="M190.22,288.43v-1.27h.14c2,0,2.73-1,2.73-3.23v-8.37a2.51,2.51,0,0,0-1.28-2.59L189,271a76.31,76.31,0,0,0,11.82-5.55v3.77a8.41,8.41,0,0,1,7.33-3.55c3.09,0,5.32,1.23,6.36,3.51a8.18,8.18,0,0,1,7-3.51c4.86,0,7.23,2.46,7.23,7.51v10.73c0,2.28.73,3.23,2.73,3.23h.13v1.27H220.24v-15c0-2.91-.55-4.28-2.59-4.28-1.87,0-2.46,1.41-2.46,4.28v10.5c0,2.28.73,3.23,2.73,3.23h.14v1.27H203.78v-1.27h.13c2,0,2.73-1,2.73-3.23v-10.5c0-2.91-.55-4.28-2.59-4.28-1.87,0-2.41,1.41-2.41,4.28v15Z" transform="translate(-12.28 -158.14)"/><path d="M244.2,289.39a11,11,0,0,1-8.55-4,11.34,11.34,0,0,1-2.64-7.55,12.68,12.68,0,0,1,2.6-7.91,11.25,11.25,0,0,1,8.73-4.32c5.68,0,9.5,3.73,9.5,9.73H241c.19,5.46,4.05,9.19,8.46,9.19a5.47,5.47,0,0,0,4.32-1.91v2.09A12.18,12.18,0,0,1,244.2,289.39ZM243,273.79c3.19,0,4.42-.05,4.42-2.5q0-4-2.87-4c-2.55,0-3.59,2.09-3.59,6.46Z" transform="translate(-12.28 -158.14)"/><path d="M257.57,280.25h1.14c1.36,4.91,4.27,7.55,7.91,7.55,2,0,3.14-1,3.14-2.64,0-2.5-1.87-3.18-5.09-4.5-4.6-1.87-7-3.32-7-7.14,0-4.69,3.73-7.83,10-7.83a24.36,24.36,0,0,1,7.27,1.19v6.05h-1.09c-1.91-3.82-3.73-5.64-6.5-5.64-2,0-3.28,1.09-3.28,2.59,0,2,2,2.68,5.51,4.09,4.68,1.91,7.09,3.23,7.09,7.28,0,4.77-4.05,8.14-10.05,8.14a24.4,24.4,0,0,1-9.05-1.87Z" transform="translate(-12.28 -158.14)"/></g></g><circle id="Eye" cx="331.65" cy="113.58" r="8.47"/><g id="Moustache"><path id="Right" d="M381.72,306.81c6.55-5.85,12-7.16,15.6-7.36,7-.4,14.49,3.88,29.26,12.46,9,5.26,12.52,7.87,17.65,7.1s9.13-4.67,11.6-8c1,6.53-.44,10.51-2.08,13-8.06,12.27-36.94,11.32-72-3.21Z" transform="translate(-12.28 -158.14)" style="fill:#8c6239"/><path id="Left" d="M381.9,306.89c-6.54-5.84-12-7.15-15.59-7.36-7-.4-14.5,3.88-29.26,12.46-9.05,5.26-12.53,7.87-17.66,7.1s-9.13-4.67-11.6-8c-1,6.53.45,10.52,2.08,13,8.07,12.27,36.95,11.31,72-3.22Z" transform="translate(-12.28 -158.14)" style="fill:#8c6239"/><path id="Shadow" d="M382.79,309.4a23.71,23.71,0,0,1,9.93-2.92c7.83-.45,12,3.63,28.63,12.85,9,5,15,7.77,22.78,8.18,5.76.31,8.33-.91,9.93-2.34,5-4.45,3-13.14,2.82-13.95-3.84,5.26-7.56,6.94-10.25,7.53-8.83,1.93-14.11-5.84-33.24-14.37-11.85-5.29-17-4.67-20.78-3.29A20.44,20.44,0,0,0,382.79,309.4Z" transform="translate(-12.28 -158.14)" style="fill:#754c24"/><path id="Left-2" d="M382.17,307.26c-3.81-5.4-7.6-7.28-10.31-8-11.18-3.07-27.93,6.65-44.08,16-1.83,1.06-5.26,3.08-9.17,2.29-5.89-1.17-9.27-8-10.87-12-3.37,11.95-.32,17.84,1.17,20,7.95,11.93,34.53,13.15,64.69-2.29" transform="translate(-12.28 -158.14)" style="fill:none;stroke:#000;stroke-linecap:round;stroke-linejoin:round;stroke-width:4.547510597518512px"/><path id="Right-2" d="M381.9,307.4c3.81-5.38,7.6-7.27,10.31-8,11.18-3.08,27.93,6.65,44.08,16,1.84,1.06,5.26,3.08,9.16,2.29,5.9-1.17,9.29-8,10.88-12,3.37,12,.32,17.85-1.17,20-8,11.94-34.53,13.16-64.69-2.29" transform="translate(-12.28 -158.14)" style="fill:none;stroke:#000;stroke-linecap:round;stroke-linejoin:round;stroke-width:4.547510597518512px"/></g><g id="Hat"><g id="Top"><path id="Top-2" d="M326.24,214.6c1.91-30,26.66-53.6,56.12-54.18,30.31-.58,56.47,23.33,58.42,54.18a276.33,276.33,0,0,1-58.42,6A276.38,276.38,0,0,1,326.24,214.6Z" transform="translate(-12.28 -158.14)" style="fill:#333;stroke:#000;stroke-linecap:round;stroke-linejoin:round;stroke-width:4.547510597518512px"/><path id="TopShadow" d="M359.07,169.25c19.71-5.26,40-.25,52.5,13.37,10.09,11,11.86,24,12.27,29.21l13.6-1.17c-.15-1.13-.39-2.72-.82-4.59a55.34,55.34,0,0,0-12.78-24.62A57.49,57.49,0,0,0,409,169.84a55.77,55.77,0,0,0-7.57-3.4,53.62,53.62,0,0,0-29.16-1.93A53,53,0,0,0,359.07,169.25Z" transform="translate(-12.28 -158.14)" style="fill:#262626"/></g><g id="Bottom"><g id="Line0"><path d="M395.21,244.55c-9.58.34-19.68.39-30.26,0-23.11-.84-56.86-6.11-56.86-6.11a7.07,7.07,0,0,1-5.77-6.74V217.09a4.88,4.88,0,0,1,4.71-5,4.69,4.69,0,0,1,1.06.08s43.39,6.61,74.27,6.71c32.13.11,77.18-6.72,77.18-6.72a4.89,4.89,0,0,1,5.7,3.91,4.69,4.69,0,0,1,.08,1.06v15.19a8,8,0,0,1-5.65,7.32l-18.89,5" transform="translate(-12.28 -158.14)" style="fill:#4d4d4d"/></g><path id="Shadow-2" d="M301,217.67a547.4,547.4,0,0,0,85.07,7.42,548.38,548.38,0,0,0,65.08-3.27,27.74,27.74,0,0,1,.59,7.87,28.27,28.27,0,0,1-3.2,11.33L460,239.11a47.55,47.55,0,0,0,1.75-27.28,471.78,471.78,0,0,1-75.23,6.52,472,472,0,0,1-81-6.52Z" transform="translate(-12.28 -158.14)" style="fill:#3b3b3b"/><line id="Line4" x1="299.23" y1="81.16" x2="291.05" y2="79.99" style="fill:none;stroke:#000;stroke-linecap:round;stroke-linejoin:round;stroke-width:4.547510597518512px"/><path id="Line3" d="M393.3,244c-9.4.11-19.28,0-29.55-.43q-16.25-.66-31-2.12" transform="translate(-12.28 -158.14)" style="fill:none;stroke:#000;stroke-linecap:round;stroke-linejoin:round;stroke-width:4.547510597518512px"/><path id="Line2" d="M436,242.21q4.89-.44,10-1,7.2-.84,14-1.89" transform="translate(-12.28 -158.14)" style="fill:none;stroke:#000;stroke-linecap:round;stroke-linejoin:round;stroke-width:4.547510597518512px"/><g id="Line1"><path d="M460.49,238.71a38.22,38.22,0,0,0,2.92-12.86c.34-6.72-.58-9.61-.58-9.61a7.37,7.37,0,0,0-7.56-4.89s-44.44,5.26-74.82,5.16c-28.9-.1-71.32-5.16-71.32-5.16a8,8,0,0,0-7.93,4.75s-.56,1.41-.79,6.83a33.62,33.62,0,0,0,2.92,15.19" transform="translate(-12.28 -158.14)" style="fill:none;stroke:#000;stroke-linecap:round;stroke-linejoin:round;stroke-width:4.547510597518512px"/></g></g></g><g id="Cup"><g id="Latte"><circle id="Shadow-3" cx="405.71" cy="108.62" r="29.65" style="fill:#ebc481"/><path id="Latte-2" d="M412,238.61a31,31,0,0,1,26.34,20.07c4.52,12.58,0,27.1-11.25,35.4,16.78-6.39,24.33-25,18.18-39.21C440.15,243.08,426.27,235.87,412,238.61Z" transform="translate(-12.28 -158.14)" style="fill:#d6aa60"/><path id="Layer1" d="M418.29,254.88c-3.7-2.92-5.66-6.07-4.81-8,.4-.9,1.52-1.8,2.4-1.6,1.4.3,1.53,3.2,2.41,3.2s1-2.92,2.4-3.2c.88-.2,2,.7,2.4,1.6C423.94,248.81,422,252,418.29,254.88Z" transform="translate(-12.28 -158.14)" style="fill:#fcf2e1"/><path id="Layer2" d="M418.29,261.78a10,10,0,0,1-3.21-2.92c-1.68-2.4-2.11-5.37-1.6-5.6.67-.3,2.25,4.41,4.81,4.41s4.13-4.71,4.8-4.41c.51.23.09,3.2-1.6,5.6A10.15,10.15,0,0,1,418.29,261.78Z" transform="translate(-12.28 -158.14)" style="fill:#fcf2e1"/><path id="Layer3" d="M418.29,267.63a9.31,9.31,0,0,1-4-2.34c-2.4-2.45-3-6.08-2.4-6.43.84-.43,2.77,4.82,6.18,4.9s5.72-5.39,6.63-4.9c.66.37,0,4-2.4,6.43A9.38,9.38,0,0,1,418.29,267.63Z" transform="translate(-12.28 -158.14)" style="fill:#fcf2e1"/><path id="Layer4" d="M418.29,274.64a16,16,0,0,1-6-4.19c-2.62-2.95-4-6.87-3.34-7.35,1-.67,4.27,6,9.35,6s8.37-6.69,9.35-6c.69.48-.72,4.4-3.34,7.35A16.06,16.06,0,0,1,418.29,274.64Z" transform="translate(-12.28 -158.14)" style="fill:#fcf2e1"/><path id="Layer5" d="M411.61,277.8a43,43,0,0,1-4-2.67c-4.87-4.24-5.26-11.83-4.67-12s1.16,5.18,6,9.35a14.22,14.22,0,0,0,9.09,3.92c5,.1,8.44-2.92,9.61-3.92,4.82-4.17,5.43-9.53,6-9.35s.66,7.79-4,12a38.53,38.53,0,0,1-5.35,3.34c-3.12,1.79-4.71,2.69-6,2.68C417.79,281.13,416.73,281.05,411.61,277.8Z" transform="translate(-12.28 -158.14)" style="fill:#fcf2e1"/><path id="Layer6" d="M410.94,285.82c-2.76-1.31-8.51-4-11.36-10-3.5-7.29-.73-15.38,0-15.36s-1.29,9,4,16a18.68,18.68,0,0,0,14.7,7.35A18.31,18.31,0,0,0,433,276.47c5-7,2.43-16,3.35-16s4.09,7.52,1.33,14.69c-2.5,6.48-8.7,9.43-11.36,10.69A15.68,15.68,0,0,1,410.94,285.82Z" transform="translate(-12.28 -158.14)" style="fill:#fcf2e1"/></g><g id="Handle"><path d="M445.55,280.51a5.8,5.8,0,0,1,7.69-2.81l.05,0L478,289.54a4.84,4.84,0,0,1,2.51,6.37,4.63,4.63,0,0,1-.56,1l-.67,1a7.35,7.35,0,0,1-8.66,2.46l-23.11-10.18a5.72,5.72,0,0,1-2.94-7.54l.06-.11Z" transform="translate(-12.28 -158.14)" style="fill:#8c6239"/></g><path id="Shadow-4" d="M448.22,281.36c12.55,6.24,21.91,11,25.71,12.85.66.33,2.22,1.11,2.33,2.34.15,1.56-2.16,2.92-3,3.37l4.34,2.06,3.37-7.64-30.73-16.1Z" transform="translate(-12.28 -158.14)" style="fill:#754c24"/><g id="Rim"><path d="M418,238.12a28.63,28.63,0,1,1-28.63,28.63A28.63,28.63,0,0,1,418,238.12m0-5.84a34.47,34.47,0,1,0,34.47,34.47A34.47,34.47,0,0,0,418,232.28Z" transform="translate(-12.28 -158.14)"/></g><g id="Handle-2"><path d="M449.28,275.74l29.8,15.07a5.85,5.85,0,0,1,2.57,7.85l-.52,1a5.84,5.84,0,0,1-7.85,2.58h0l-29.79-15.07" transform="translate(-12.28 -158.14)" style="fill:none;stroke:#000;stroke-linecap:round;stroke-linejoin:round;stroke-width:4.547510597518512px"/></g></g></svg>