<svg id="Cup" xmlns="http://www.w3.org/2000/svg" viewBox="0 0 380 477.93"><title>page1cup</title><g id="Cup-2" data-name="Cup"><path id="Shadow" d="M31.23,432.13c2.06-18.54,92.83-25.25,160.74-20.73,72.66,4.83,167.86,25.76,167.12,45.08s-97.64,38.26-187.22,27.4C104.92,475.76,29.31,449.46,31.23,432.13Z" transform="translate(-31.2 -9.13)" style="fill:#29150b"/><path id="Base" d="M358.43,459.49a256.69,256.69,0,0,1-189.5,0q-20.61-182.1-41.2-364.17A555.43,555.43,0,0,0,259.56,111.8,555.47,555.47,0,0,0,396.33,95.32Q377.39,277.42,358.43,459.49Z" transform="translate(-31.2 -9.13)" style="fill:#e6e6e6"/><path id="BShadow" d="M396.33,95.32,394,117.85a454.24,454.24,0,0,1-123.45,19,454.37,454.37,0,0,1-113.29-12.6c4.53,173,19.77,300.72,39.2,322.64a95,95,0,0,0,15.14,13.68c25.92,17.89,56.62,15.7,56.51,16.84-.09.81-15.49,0-17.21-.13-3.95-.23-9.17-.53-16.23-1.34a258,258,0,0,1-36.25-6.79,254.63,254.63,0,0,1-29.48-9.69L127.6,93.18A525,525,0,0,0,270.52,111.8,525.16,525.16,0,0,0,396.33,95.32Z" transform="translate(-31.2 -9.13)" style="fill:#ccc"/><path id="Lid1" d="M262.86,115.28C176,115.1,114,97,114.31,87.69c.08-2.14,3.13-3.09,7.72-10.49a56.54,56.54,0,0,0,7.2-17.93A472.31,472.31,0,0,0,261.06,78.66,471.66,471.66,0,0,0,396.48,59.42a44,44,0,0,0,5.8,17.89c4.65,7.83,8.82,9,8.91,11.36C411.49,97.58,350.08,115.49,262.86,115.28Z" transform="translate(-31.2 -9.13)" style="fill:#603813"/><path id="Lid2" d="M396.45,59.42c.59,9.74-66.61,26.07-133.73,26S128.64,69,129.25,59.27C130,47.9,222.91,45.38,262.81,45.39S395.75,48.05,396.45,59.42Z" transform="translate(-31.2 -9.13)" style="fill:#42210b"/><path id="Lid3" d="M262.43,71.83c-61,.11-104.16-10.11-104-14.83,0-.68.91-.76,4.95-5.18a56.93,56.93,0,0,0,6-7.58,39.35,39.35,0,0,0,4.43-9.39,541.61,541.61,0,0,0,88.62,7.88A541.05,541.05,0,0,0,351.59,36a69,69,0,0,0,4.47,8.24,54.55,54.55,0,0,0,5.24,7.14c3.62,4.12,5.14,4.38,5.17,5.22C366.69,61.05,324.25,71.71,262.43,71.83Z" transform="translate(-31.2 -9.13)" style="fill:#603813"/><path id="Lid4" d="M351.59,36c.1,6.46-46.53,14.17-89.41,13.86-42.4-.31-88.54-8.54-88.37-15s50-11.36,88.37-11.16C301.22,23.92,351.49,29.31,351.59,36Z" transform="translate(-31.2 -9.13)" style="fill:#42210b"/><ellipse id="Lid5" cx="231.65" cy="26.22" rx="65.37" ry="7.22" style="fill:#241206"/><path id="Top3" d="M298.86,10.92l29.56,8.59,8.05-5.11L307.1,9.13Z" transform="translate(-31.2 -9.13)" style="fill:#241206"/><path id="Top2" d="M327.9,36c-6.23-1.65-12.92-3.29-20.07-4.63q-8.07-1.53-15.49-2.52l6.52-17.93,32.22,6Z" transform="translate(-31.2 -9.13)" style="fill:#4a2b0e"/><path id="Top1" d="M328.18,16.41q-.15,9.89-.28,19.64l23.21-1.15L336.4,14.4Z" transform="translate(-31.2 -9.13)" style="fill:#603813"/></g><g id="Logo"><g style="isolation:isolate"><g style="isolation:isolate"><path d="M211.1,268.39v.93H199.31v-.93c2.07-.13,2.57-.79,2.57-2.83V250.35c0-2-.5-2.71-2.57-2.84v-.92h11.82v.92c-1.68.3-2,1.06-2,2.84v5.5h5.47v-5.5c0-1.78-.33-2.54-2-2.84v-.92h11.83v.92c-2.08.13-2.57.79-2.57,2.84v15.21c0,2,.49,2.7,2.57,2.83v.93h-11.8v-.93c1.68-.29,2-1.05,2-2.83v-8.43h-5.54v8.43C209.12,267.34,209.45,268.07,211.1,268.39Z" transform="translate(-31.2 -9.13)"/><path d="M260.54,251l-1.74-1.42q3.75-1.19,8.86-3.26v19.77c0,1.64.52,2.33,2,2.33h.1v.93H259.39v-.93h.1c1.45,0,2-.69,2-2.33V252.85A1.85,1.85,0,0,0,260.54,251Z" transform="translate(-31.2 -9.13)"/><path d="M274.11,269.32v-.93h.1c1.45,0,2-.69,2-2.33V260a1.82,1.82,0,0,0-.92-1.88l-2-1.42a55.28,55.28,0,0,0,8.56-4v2.74a6.08,6.08,0,0,1,5.3-2.57c2.24,0,3.86.89,4.62,2.53a5.9,5.9,0,0,1,5.07-2.53c3.52,0,5.24,1.78,5.24,5.43v7.78c0,1.64.52,2.33,2,2.33h.1v.93h-8.27V258.45c0-2.11-.39-3.1-1.87-3.1s-1.78,1-1.78,3.1v7.61c0,1.64.52,2.33,2,2.33h.1v.93H283.93v-.93h.1c1.45,0,2-.69,2-2.33v-7.61c0-2.11-.39-3.1-1.87-3.1s-1.75,1-1.75,3.1v10.87Z" transform="translate(-31.2 -9.13)"/><path d="M316.51,270a8,8,0,0,1-6.2-2.87,8.21,8.21,0,0,1-1.91-5.46,9.26,9.26,0,0,1,1.88-5.74,8.18,8.18,0,0,1,6.33-3.12c4.11,0,6.88,2.7,6.88,7h-9.32c.13,4,2.93,6.66,6.12,6.66a3.94,3.94,0,0,0,3.13-1.39v1.52A8.81,8.81,0,0,1,316.51,270Zm-.89-11.3c2.3,0,3.19,0,3.19-1.81s-.69-2.87-2.07-2.87c-1.85,0-2.6,1.52-2.6,4.68Z" transform="translate(-31.2 -9.13)"/><path d="M329.49,263.39h.82c1,3.56,3.1,5.47,5.73,5.47,1.45,0,2.27-.73,2.27-1.91,0-1.82-1.35-2.31-3.69-3.26-3.32-1.36-5-2.41-5-5.18,0-3.39,2.71-5.66,7.22-5.66a17.81,17.81,0,0,1,5.27.85v4.39h-.79c-1.39-2.77-2.7-4.09-4.71-4.09-1.45,0-2.37.79-2.37,1.88,0,1.45,1.44,1.94,4,3,3.39,1.39,5.14,2.34,5.14,5.27,0,3.46-2.93,5.9-7.28,5.9a17.65,17.65,0,0,1-6.55-1.35Z" transform="translate(-31.2 -9.13)"/></g></g><path d="M231.87,271.64l-9,9.67L225,283l9-9.67" transform="translate(-31.2 -9.13)" style="fill:#c7905d;stroke:#000;stroke-linecap:round;stroke-linejoin:round;stroke-width:0.6633762459381743px"/><path d="M222.74,280.79l2.6,2.14" transform="translate(-31.2 -9.13)" style="fill:none;stroke:#000;stroke-linecap:round;stroke-linejoin:round;stroke-width:1.3267524918763487px"/><path d="M232.92,268.05l-2,2.29,4.33,3.76,2.16-2.31" transform="translate(-31.2 -9.13)" style="fill:#c7905d;stroke:#000;stroke-linecap:round;stroke-linejoin:round;stroke-width:0.6633762459381743px"/><circle id="Shadow-2" cx="211.5" cy="251.54" r="11.3" style="fill:#ebc481"/><path id="Latte" d="M240.41,249.94a11.65,11.65,0,0,1,5.76,21.16,11.53,11.53,0,0,0,7-14.73c0-.07-.05-.15-.08-.22A11.53,11.53,0,0,0,240.41,249.94Z" transform="translate(-31.2 -9.13)" style="fill:#d6aa60"/><path id="Layer1" d="M242.81,256.15c-1.42-1.1-2.16-2.32-1.83-3,.15-.34.58-.69.91-.61s.59,1.22.92,1.22.38-1.1.92-1.22.76.27.91.61C245,253.83,244.16,255.05,242.81,256.15Z" transform="translate(-31.2 -9.13)" style="fill:#fcf2e1"/><path id="Layer2" d="M242.81,258.79a4,4,0,0,1-1.22-1.11c-.64-.92-.81-2.06-.61-2.14s.86,1.65,1.83,1.65,1.65-1.8,1.83-1.65,0,1.22-.61,2.14A3.81,3.81,0,0,1,242.81,258.79Z" transform="translate(-31.2 -9.13)" style="fill:#fcf2e1"/><path id="Layer3" d="M242.81,261a3.54,3.54,0,0,1-1.53-.89c-.91-.94-1.15-2.32-.91-2.44s1.06,1.83,2.36,1.87,2.17-2.06,2.52-1.87,0,1.52-.91,2.44A3.54,3.54,0,0,1,242.81,261Z" transform="translate(-31.2 -9.13)" style="fill:#fcf2e1"/><path id="Layer4" d="M242.81,263.68a6,6,0,0,1-2.29-1.65c-1-1.12-1.55-2.62-1.27-2.8s1.65,2.29,3.56,2.29,3.2-2.53,3.58-2.29-.28,1.65-1.29,2.8A5.88,5.88,0,0,1,242.81,263.68Z" transform="translate(-31.2 -9.13)" style="fill:#fcf2e1"/><path id="Layer5" d="M240.26,264.89a14.31,14.31,0,0,1-1.52-1,5.58,5.58,0,0,1-1.8-4.6,10.7,10.7,0,0,0,2.31,3.58,5.43,5.43,0,0,0,3.46,1.5,5.64,5.64,0,0,0,3.68-1.5,11.52,11.52,0,0,0,2.29-3.58,5.17,5.17,0,0,1-1.54,4.6,14.21,14.21,0,0,1-2,1.27,5.57,5.57,0,0,1-2.29,1C242.63,266.17,242.22,266.14,240.26,264.89Z" transform="translate(-31.2 -9.13)" style="fill:#fcf2e1"/><path id="Layer6" d="M240,268a8.47,8.47,0,0,1-4.33-3.82,6.59,6.59,0,0,1,0-5.87c.29,0-.5,3.44,1.53,6.13a7.11,7.11,0,0,0,5.6,2.8,7,7,0,0,0,5.6-2.8c1.93-2.69.93-6.1,1.29-6.13a6.15,6.15,0,0,1,.51,5.62,8,8,0,0,1-4.33,4.07,6.58,6.58,0,0,1-3.07.76A6.51,6.51,0,0,1,240,268Z" transform="translate(-31.2 -9.13)" style="fill:#fcf2e1"/><g id="Rim"><path d="M242.7,249.51a11.18,11.18,0,1,1-11.18,11.17h0a11.2,11.2,0,0,1,11.18-11.17m0-2a13.19,13.19,0,1,0,13.18,13.19A13.2,13.2,0,0,0,242.7,247.53Z" transform="translate(-31.2 -9.13)"/></g><g style="isolation:isolate"><path d="M237.77,217.2l-.73-.27,1.29-6.72a5.49,5.49,0,0,0,2.9.59h11.11a5.35,5.35,0,0,0,2.86-.59l1.32,6.72-.72.27c-1.26-3-3-4.52-5.41-4.91v17.5c0,2,.5,2.7,2.57,2.83v.92H240.57v-.92c2.08-.13,2.6-.79,2.6-2.83v-17.5C240.7,212.71,239,214.3,237.77,217.2Z" transform="translate(-31.2 -9.13)"/><path d="M270.53,219.93c-1.35,0-1.78,1-1.78,3.1v7.25c0,1.35.36,2.08,1.38,2.34v.92h-9.65v-.92h.09c1.45,0,2-.69,2-2.34V217.06a1.82,1.82,0,0,0-.92-1.87l-1.75-1.42a90.39,90.39,0,0,0,8.6-3.27v9.4a6.79,6.79,0,0,1,5.34-2.84c3,0,4.75,1.88,4.75,5.44v7.78c0,1.65.53,2.34,2,2.34h.1v.92H271v-.92c1.05-.3,1.38-1,1.38-2.34V223C272.37,220.92,272,219.93,270.53,219.93Z" transform="translate(-31.2 -9.13)"/><path d="M293.07,234.23a8,8,0,0,1-6.2-2.86A8.24,8.24,0,0,1,285,225.9a9.2,9.2,0,0,1,1.88-5.74,8.19,8.19,0,0,1,6.33-3.13c4.12,0,6.89,2.7,6.89,7.05h-9.33c.13,4,2.93,6.66,6.13,6.66a4,4,0,0,0,3.13-1.38v1.51A8.83,8.83,0,0,1,293.07,234.23Zm-.89-11.3c2.31,0,3.2,0,3.2-1.81s-.7-2.87-2.08-2.87c-1.85,0-2.6,1.52-2.6,4.68Z" transform="translate(-31.2 -9.13)"/></g></g></svg>