<svg id="Card" xmlns="http://www.w3.org/2000/svg" viewBox="0 0 400 146.33"><title>page2card</title><path id="BShadow" d="M462.85,299.16l-135,43.2q7.53-21.84,15.05-43.69Z" transform="translate(-62.85 -196.06)" style="fill:#29150b"/><path id="Back" d="M378.27,196.06l24.39,117.06h-65Z" transform="translate(-62.85 -196.06)" style="fill:#d9caad"/><path id="Front" d="M124.63,196.06H378.27l-50.4,146.33h-265Q93.75,269.22,124.63,196.06Z" transform="translate(-62.85 -196.06)" style="fill:#fff3db"/><path d="M138.89,220.83h7.66l-4.65,25.74h.1l11.48-25.74h7.65l-11.38,35.93-5,0,8.58-27.22h-.1l-12.44,27.23h-4.44L141,229.57h-.1l-8.48,27.24h-4.63Z" transform="translate(-62.85 -196.06)" style="fill:#1a1a1a"/><path d="M172.45,220.83h14.63L185.41,226h-9.25l-3.06,9.48h7.34l-1.66,5.13h-7.33l-3.55,11,9.19,0-1.67,5.12-14.48,0Z" transform="translate(-62.85 -196.06)" style="fill:#1a1a1a"/><path d="M197.46,220.83h7.66L200,246.46h.1l11.92-25.63h7.66l-12,35.78h-5l9-27.1h-.1l-12.9,27.11h-4.44l5.08-27.11h-.09l-8.95,27.12-4.63,0Z" transform="translate(-62.85 -196.06)" style="fill:#1a1a1a"/><path d="M231,220.83h8.09c5.56,0,7,2.7,5.13,8.21l-.49,1.43c-1.27,3.67-3.12,6-5.85,7l0,.1c2.52,1,2.72,3.67,1.42,7.45l-1.05,3.06c-1.9,5.51-5.67,8.47-11,8.49l-8.35,0Zm2.5,14.54c2,0,3.51-.92,4.49-3.78l.68-2c.88-2.55.43-3.67-1.47-3.67h-2.58l-3.21,9.45ZM229,251.45c1.78,0,3.05-.87,4-3.53l1.06-3.11c1.14-3.32.47-4.33-2-4.33h-2.37l-3.74,11Z" transform="translate(-62.85 -196.06)" style="fill:#1a1a1a"/><path d="M258,220.83h14.64l-1.8,5.09h-9.25l-3.29,9.43h7.33l-1.79,5.09h-7.32l-3.82,11,9.18,0-1.79,5.09-14.48,0Z" transform="translate(-62.85 -196.06)" style="fill:#1a1a1a"/><path d="M283.05,220.83H291c5.56,0,7,2.69,5,8.18l-.78,2.18c-1.32,3.66-3.28,6-6,7l0,.1c2.36.86,2.28,3.5.83,7.52l-2.25,6.25a11.25,11.25,0,0,0-1,4.32h-5.41c0-.91,0-1.47,1.09-4.37l2.33-6.51c1.19-3.3.65-4.37-1.78-4.36h-1.84l-5.45,15.26h-5.31Zm1.86,15.25c2,0,3.53-.92,4.56-3.77l1-2.74c.91-2.54.49-3.66-1.41-3.66H286.6L283,236.08Z" transform="translate(-62.85 -196.06)" style="fill:#1a1a1a"/><path d="M299.23,247.94l.74-2h5l-.89,2.44c-.93,2.54-.2,3.45,1.49,3.44s3.09-.92,4.06-3.56c1.08-2.94.7-4.81-1.62-8-3-4.1-3.36-7-1.89-11.06,2-5.58,6-8.83,11.22-8.83s6.61,3.24,4.51,8.92l-.54,1.47h-5.06l.67-1.83c.93-2.54.31-3.5-1.39-3.5s-3,1-3.92,3.4c-.95,2.59-.52,4.47,1.81,7.66,3,4.11,3.31,6.94,1.68,11.36-2.13,5.78-6.13,9-11.34,9.05S297.16,253.63,299.23,247.94Z" transform="translate(-62.85 -196.06)" style="fill:#1a1a1a"/><path d="M157.3,309.67l6.12-18.86c1.87-5.74,5.76-9,10.93-9.05s6.92,3.24,5,9l-6.21,18.83c-1.89,5.74-5.77,9-10.89,9.07S155.44,315.41,157.3,309.67Zm10.53.29,6.41-19.56c.84-2.56.11-3.53-1.56-3.52s-3.05,1-3.88,3.55L162.41,310c-.84,2.56-.11,3.53,1.55,3.52S167,312.52,167.83,310Z" transform="translate(-62.85 -196.06)" style="fill:#1a1a1a"/><path d="M192.91,282.18l6.61,0-2.09,21.39h.1l7.21-21.41,4.7,0-12.11,35.75-5.35,0,2.49-26.08h-.1L185.63,318,181,318Z" transform="translate(-62.85 -196.06)" style="fill:#1a1a1a"/><path d="M220.55,282.06l5.27,0-10.53,30.61,8.59-.06-1.76,5.1-13.8.1Z" transform="translate(-62.85 -196.06)" style="fill:#1a1a1a"/><path d="M237.66,302.42l.8-20.44,5.61,0-1,13.07h.09l8.19-13.1,5.12,0-13.57,20.5-5.34,15.18-5.21,0Z" transform="translate(-62.85 -196.06)" style="fill:#1a1a1a"/></svg>