<svg id="Layer_1" data-name="Layer 1" xmlns="http://www.w3.org/2000/svg" viewBox="0 0 170 361.46"><title>theholmes_face_half</title><path d="M400,325.81a5.84,5.84,0,0,1-5.7-4.75c-4.87-6.29-10.25-10.3-16-11.89-20.14-5.54-54.21,14.24-84.27,31.7l-.13.07c-4,2.35-12.45,7.24-22.43,5.22q-10.2-2.07-17.89-12.38c-.48,9.59,1.83,15.72,4.35,19.49,13.73,20.62,63.39,23.79,122.7-6.58a5.88,5.88,0,0,1,7.92,2.55,5.75,5.75,0,0,1,.63,2.21c3.58-1.37,7.19-2.79,10.84-4.3Z" transform="translate(-230 -19.27)" style="fill:#8c6239"/><path d="M356.62,41.08c-32.76,15.28-57.17,46.5-62.41,83.77,29.82,2.82,70.77,6,102.94,6.15H400V38.58A118.06,118.06,0,0,0,356.62,41.08Z" transform="translate(-230 -19.27)" style="fill:#333"/><path d="M400,38.58V31a107.12,107.12,0,0,0-43.38,10A118.06,118.06,0,0,1,400,38.58Z" transform="translate(-230 -19.27)" style="fill:#262626"/><path d="M241.82,150.08a61.85,61.85,0,0,0,4.16,25l13.15,1.88a5.86,5.86,0,0,1,5,6c7.85,1.12,18.77,2.62,31.12,4.14,0-.2,0-.4,0-.6a5.87,5.87,0,0,1,6.42-5.29c20.55,2,41.43,3.42,62.05,4.26,12,.49,24.15.77,36.26.87V154.06a1104.06,1104.06,0,0,1-157.33-13.93A93.6,93.6,0,0,0,241.82,150.08Z" transform="translate(-230 -19.27)" style="fill:#4d4d4d"/><path d="M397.12,142.76c-57.88-.19-143.45-10.31-144.31-10.41a10.32,10.32,0,0,0-9.74,5.72,20.3,20.3,0,0,0-.4,2.06A1104.06,1104.06,0,0,0,400,154.06v-11.3h-2.88Z" transform="translate(-230 -19.27)" style="fill:#3b3b3b"/><circle cx="323.6" cy="248.07" r="17.06" transform="translate(-278.34 61.72) rotate(-13.28)"/><path d="M380.61,346.69c-59.31,30.37-109,27.2-122.7,6.58-2.52-3.77-4.83-9.9-4.35-19.49q7.67,10.29,17.89,12.38c10,2,18.39-2.87,22.43-5.22l.13-.07c30.06-17.46,64.13-37.24,84.27-31.7,5.77,1.59,11.15,5.6,16,11.89a5.87,5.87,0,0,1,1-4.52,62.81,62.81,0,0,1,4.74-5.93v-1c-5.59-5.95-11.82-9.9-18.6-11.77-24.9-6.85-59.67,13.35-93.29,32.87l-.13.08c-3.22,1.86-8.6,5-14.2,3.86-8.44-1.71-14.23-12.16-17.61-20.63a5.89,5.89,0,0,0-11.13.58c-6.64,23.59-2,37.61,3.08,45.22,9.31,14,28,20.93,51.55,20.93,25.09,0,55.69-7.89,86.31-23.57a5.9,5.9,0,0,0,3.18-5.71,5.75,5.75,0,0,0-.63-2.21A5.88,5.88,0,0,0,380.61,346.69Z" transform="translate(-230 -19.27)"/><path d="M395.26,316.54a5.87,5.87,0,0,0,4.74,9.27v-15.2A62.81,62.81,0,0,0,395.26,316.54Z" transform="translate(-230 -19.27)"/><path d="M294.21,124.85c5.24-37.27,29.65-68.49,62.41-83.77A107.12,107.12,0,0,1,400,31V19.27c-59.14.95-109.54,46-117.51,104.44C286.14,124.07,290.07,124.46,294.21,124.85Z" transform="translate(-230 -19.27)"/><path d="M238.3,185.09a5.12,5.12,0,0,1-.44-.34C238,184.87,238.15,185,238.3,185.09Z" transform="translate(-230 -19.27)"/><path d="M240.26,186.06c-.16-.05-.32-.08-.48-.14C239.93,186,240.1,186,240.26,186.06Z" transform="translate(-230 -19.27)"/><path d="M237.47,184.33a5,5,0,0,1-.37-.43A5,5,0,0,0,237.47,184.33Z" transform="translate(-230 -19.27)"/><path d="M239.26,185.68a4.66,4.66,0,0,1-.5-.25C238.92,185.52,239.09,185.6,239.26,185.68Z" transform="translate(-230 -19.27)"/><path d="M236.84,183.49c-.12-.2-.24-.39-.34-.6C236.6,183.1,236.72,183.29,236.84,183.49Z" transform="translate(-230 -19.27)"/><path d="M259.13,176.94,246,175.06c.38,1,.78,2,1.22,2.95a5.89,5.89,0,0,1-3,7.77,5.82,5.82,0,0,1-3.32.44l.09,0,16.47,2.35a5.87,5.87,0,0,0,6.65-5,4.86,4.86,0,0,0,0-.66A5.86,5.86,0,0,0,259.13,176.94Z" transform="translate(-230 -19.27)"/><path d="M301.69,181.19a5.87,5.87,0,0,0-6.42,5.29c0,.2,0,.4,0,.6a5.85,5.85,0,0,0,5.28,5.82c20.77,2,41.87,3.46,62.71,4.31,12.18.5,24.47.79,36.74.89V186.32c-12.11-.1-24.24-.38-36.26-.87C343.12,184.61,322.24,183.18,301.69,181.19Z" transform="translate(-230 -19.27)"/><path d="M236.5,182.89c.1.21.22.4.34.6s.16.28.26.41a5,5,0,0,0,.37.43c.13.14.25.29.39.42a5.12,5.12,0,0,0,.44.34,5.48,5.48,0,0,0,.46.34,4.66,4.66,0,0,0,.5.25,4.9,4.9,0,0,0,.52.24c.16.06.32.09.48.14s.43.12.65.16a5.82,5.82,0,0,0,3.32-.44,5.89,5.89,0,0,0,3-7.77c-.44-1-.84-2-1.22-2.95a61.85,61.85,0,0,1-4.16-25,93.6,93.6,0,0,1,.85-10,20.3,20.3,0,0,1,.4-2.06,10.32,10.32,0,0,1,9.74-5.72c.86.1,86.43,10.22,144.31,10.41H400V131h-2.85c-32.17-.11-73.12-3.33-102.94-6.15-4.14-.39-8.07-.78-11.72-1.14-16.82-1.69-28-3-28.28-3-9.07-1.08-18.82,4.74-22.15,13.25-.45,1.13-1.52,4.91-2,15.65a73.76,73.76,0,0,0,6.39,33.25A.43.43,0,0,1,236.5,182.89Z" transform="translate(-230 -19.27)"/></svg>