<svg xmlns="http://www.w3.org/2000/svg" viewBox="0 0 386.06 335.45"><title>theholmes_logo_line</title><g id="Logo"><g id="Face"><circle id="Eye" cx="135.95" cy="240.91" r="12.28"/><g id="Moustache"><path id="Left" d="M248.59,349.36c-5.51-7.82-11-10.55-14.94-11.62-16.21-4.46-40.5,9.64-63.92,23.24-2.66,1.54-7.61,4.47-13.28,3.32-8.55-1.73-13.46-11.62-15.78-17.43-4.88,17.33-.46,25.87,1.66,29.05,11.53,17.31,50.07,19.08,93.81-3.32" transform="translate(-57.21 -56.92)" style="fill:none;stroke:#000;stroke-linecap:round;stroke-linejoin:round;stroke-width:6px"/><path id="Right" d="M248.21,349.57c5.52-7.81,11-10.54,14.94-11.62,16.22-4.46,40.5,9.64,63.92,23.24,2.66,1.55,7.61,4.47,13.29,3.33,8.54-1.73,13.45-11.63,15.77-17.44,4.88,17.34.46,25.87-1.66,29.06-11.53,17.3-50.07,19.08-93.81-3.32" transform="translate(-57.21 -56.92)" style="fill:none;stroke:#000;stroke-linecap:round;stroke-linejoin:round;stroke-width:6px"/></g></g><g id="Hat"><g id="Top"><path id="Top-2" data-name="Top" d="M167.32,212.69c3.76-42.47,39.72-75.37,82.17-75.39,42.17,0,78,32.41,82.17,74.54" transform="translate(-57.21 -56.92)" style="fill:none;stroke:#000;stroke-linecap:round;stroke-linejoin:round;stroke-width:6px"/></g><g id="Bottom"><line id="Line4" x1="88.93" y1="193.89" x2="77.07" y2="192.2" style="fill:none;stroke:#000;stroke-linecap:round;stroke-linejoin:round;stroke-width:6px"/><path id="Line3" d="M264.74,257.59c-13.63.17-27.94,0-42.85-.61-15.71-.64-30.7-1.71-44.92-3.09" transform="translate(-57.21 -56.92)" style="fill:none;stroke:#000;stroke-linecap:round;stroke-linejoin:round;stroke-width:6px"/><path id="Line2" d="M331.66,255.05c3.25-.17,6.65-.45,10.17-.85a169.7,169.7,0,0,0,19.48-3.39" transform="translate(-57.21 -56.92)" style="fill:none;stroke:#000;stroke-linecap:round;stroke-linejoin:round;stroke-width:6px"/><g id="Line1"><path d="M362.16,250a55.44,55.44,0,0,0,4.24-18.63c.48-9.75-.84-14-.84-14a10.67,10.67,0,0,0-11-7.08s-64.48,7.62-108.49,7.47c-41.9-.13-103.41-7.47-103.41-7.47a11.59,11.59,0,0,0-11.5,6.89s-.8,2-1.14,9.9a48.82,48.82,0,0,0,4.23,22" transform="translate(-57.21 -56.92)" style="fill:none;stroke:#000;stroke-linecap:round;stroke-linejoin:round;stroke-width:6px"/></g></g></g><g id="Cup"><g id="Latte"><path id="Layer1" d="M301,273.42c-5.36-4.22-8.2-8.81-7-11.6.58-1.29,2.21-2.6,3.48-2.32,2,.44,2.21,4.64,3.48,4.64s1.46-4.2,3.48-4.64c1.28-.28,2.91,1,3.48,2.32C309.17,264.61,306.33,269.2,301,273.42Z" transform="translate(-57.21 -56.92)"/><path id="Layer2" d="M301,283.43a14.74,14.74,0,0,1-4.65-4.21c-2.45-3.49-3.06-7.78-2.32-8.12,1-.44,3.26,6.4,7,6.4s6-6.84,6.95-6.4c.75.34.14,4.63-2.32,8.12A14.6,14.6,0,0,1,301,283.43Z" transform="translate(-57.21 -56.92)"/><path id="Layer3" d="M301,291.9a13.38,13.38,0,0,1-5.81-3.39c-3.49-3.56-4.39-8.81-3.48-9.29,1.22-.63,4,7,9,7.1s8.3-7.81,9.61-7.1c1,.53,0,5.76-3.49,9.29A13.45,13.45,0,0,1,301,291.9Z" transform="translate(-57.21 -56.92)"/><path id="Layer4" d="M301,302.06a23.22,23.22,0,0,1-8.72-6.06c-3.8-4.28-5.85-10-4.85-10.66,1.44-1,6.19,8.72,13.57,8.72s12.12-9.71,13.56-8.72c1,.7-1,6.38-4.85,10.66A23.12,23.12,0,0,1,301,302.06Z" transform="translate(-57.21 -56.92)"/><path id="Layer5" d="M291.28,306.65a64.7,64.7,0,0,1-5.81-3.87c-7.06-6.15-7.65-17.15-6.78-17.44s1.72,7.51,8.71,13.56c1.8,1.56,6.42,5.56,13.19,5.69,7.21.14,12.23-4.21,13.94-5.69,7-6,7.86-13.82,8.72-13.56s.95,11.29-5.82,17.44c-1.17,1.07-3.36,2.32-7.75,4.84s-6.83,3.91-8.71,3.88C300.25,311.49,298.7,311.36,291.28,306.65Z" transform="translate(-57.21 -56.92)"/><path id="Layer6" d="M290.31,318.28c-4-1.9-12.33-5.86-16.47-14.53-5-10.58-1.06-22.3,0-22.28s-1.87,13,5.82,23.25A27,27,0,0,0,301,315.37a26.55,26.55,0,0,0,21.31-10.65c7.28-10.19,3.51-23.14,4.84-23.25s5.95,10.91,1.94,21.31c-3.63,9.4-12.62,13.67-16.47,15.5a22.81,22.81,0,0,1-22.28,0Z" transform="translate(-57.21 -56.92)"/></g><g id="Rim"><path d="M300.55,246.65a44,44,0,1,1-44,44,44,44,0,0,1,44-44m0-6a50,50,0,1,0,50,50,50,50,0,0,0-50-50Z" transform="translate(-57.21 -56.92)"/></g><g id="Handle"><path d="M345.91,303.66l43.2,21.85a8.49,8.49,0,0,1,3.73,11.38l-.76,1.51a8.5,8.5,0,0,1-11.38,3.74l-43.21-21.85" transform="translate(-57.21 -56.92)" style="fill:none;stroke:#000;stroke-linecap:round;stroke-linejoin:round;stroke-width:6px"/></g></g></g><g id="Text"><g id="Curved"><path d="M64.72,164.09l-.94.6-6.57-7.4a7.86,7.86,0,0,0,3.24-2.79l9.78-12.72A7.71,7.71,0,0,0,72.08,138l8.86,4.42-.34,1.06c-4.54-1.21-7.81-.54-10.38,1.86l20,15.42c2.34,1.8,3.53,1.82,5.51-.44l1.06.81L85.9,175.29l-1.05-.82c1.67-2.49,1.38-3.67-1-5.47l-20-15.42C62.17,156.78,62.44,160.18,64.72,164.09Z" transform="translate(-57.21 -56.92)"/><path d="M118.41,137.61l.87,1-13,11.07-.87-1c2.16-2.09,2.08-3.28.17-5.53l-14.3-16.72c-1.92-2.24-3.08-2.5-5.49-.7l-.86-1,13-11.11.87,1c-1.57,1.91-1.22,3.05.45,5l5.17,6.05,6-5.14-5.17-6c-1.67-2-2.75-2.48-4.87-1.23l-.87-1,13-11.11.86,1c-2.15,2.1-2.08,3.29-.16,5.53l14.3,16.72c1.92,2.25,3.08,2.51,5.48.7l.87,1-13,11.08-.86-1c1.56-1.91,1.25-3.08-.42-5l-7.92-9.27-6.08,5.2,7.92,9.27C115.25,138.31,116.29,138.8,118.41,137.61Z" transform="translate(-57.21 -56.92)"/><path d="M142.34,119.19c2.56-1.58,2.74-2.75,1.35-5.36L133.35,94.42c-1.41-2.65-2.51-3.09-5.2-1.87l-.63-1.18,18.41-9.8c2.06-1.1,3.26-2.18,3.62-3.34a37.11,37.11,0,0,0,6.53,6.4l-1,1.11c-4.5-2.46-8.09-2.43-12.38-.15l-1.72.92,5.48,10.29c4.14-2.26,5.58-4.32,4.38-7l1.26-.67,4.92,9.24-1.26.68C154,96.27,151.43,96,147.61,98l-.38.2,4.66,8.74c1.9,3.57,3.25,4.79,6.44,3.09,3.7-2,6.1-6.59,5.74-12.22l1.44-.13,1.49,9.89-24,12.81Z" transform="translate(-57.21 -56.92)"/><path d="M220.33,90.84l.19,1.32-16.88,2.39-.19-1.32c3-.61,3.52-1.65,3.1-4.57l-3.09-21.79c-.42-2.92-1.26-3.76-4.25-3.53L199,62l16.92-2.4.19,1.32c-2.34.76-2.66,1.91-2.3,4.46L215,73.27l7.83-1.11-1.12-7.87c-.36-2.55-1-3.57-3.45-3.65L218,59.32,235,56.92l.18,1.32c-2.94.61-3.51,1.65-3.1,4.57l3.1,21.79c.41,2.92,1.25,3.76,4.25,3.53l.19,1.32-16.88,2.4-.19-1.32c2.34-.77,2.71-1.93,2.35-4.47L223.13,74l-7.92,1.12,1.72,12.07C217.29,89.73,217.91,90.7,220.33,90.84Z" transform="translate(-57.21 -56.92)"/><path d="M256.14,86.21a17.18,17.18,0,0,1-4.27-13.34A17.63,17.63,0,1,1,287,76a18,18,0,0,1-30.84,10.22Zm17.14,1.33c1.38-2.08,2-6.23,2.56-12.59,1-10.77.71-15.62-5.22-16.15s-7,4.26-8,15c-.57,6.36-.7,10.6.29,12.84A5.58,5.58,0,0,0,267.86,90,5.47,5.47,0,0,0,273.28,87.54Z" transform="translate(-57.21 -56.92)"/><path d="M305.46,64.74l.39-1.27L323,68.77l-.4,1.27c-2.92-.7-3.89,0-4.76,2.81L312,91.73c-1.11,3.59-1.11,5.34,1.71,6.22,3.41,1,8.49-.51,12.67-5.15l1.12.89L321,102.55l-24.84-7.7.4-1.27c2.92.71,3.89,0,4.76-2.81l6.51-21C308.67,66.93,308.27,65.81,305.46,64.74Z" transform="translate(-57.21 -56.92)"/><path d="M332.21,105c3,1.49,4.87.11,7.7-4.14l9.69-14.48a9.84,9.84,0,0,0,.64-1c1.42-2.47,1.32-4-.68-5.22l.66-1.16,12.06,6.93-3.83,15,11.22-10.74,12.1,7-.66,1.16c-2.52-1.17-3.52-.87-4.73,1.24-.66,1.15-1.09,2-1.36,2.56l-7.88,16c-1.89,3.86-2.42,5.25.74,7.4l-.66,1.16-15.82-9.09.67-1.16c2.43,1,3.53.93,4.59-.93.07-.12.5-.86,1.23-2.31L366.65,96,346,115.37l5-27.79-9.55,14.23c-.44.68-.93,1.33-1.28,2-1.71,3-1.56,4.82.77,6.21l-.67,1.16-8.67-5Z" transform="translate(-57.21 -56.92)"/><path d="M375.73,132c2.33,1.9,3.5,1.68,5.5-.48l14.94-16.15c2-2.21,2.09-3.39.06-5.53l.9-1,15.31,14.16c1.72,1.58,3.13,2.37,4.34,2.32a36.79,36.79,0,0,0-3.89,8.28l-1.37-.56c.85-5-.36-8.44-3.93-11.74L406.16,120l-7.92,8.56c3.49,3.17,5.91,3.85,8,1.85l1.05,1-7.11,7.69-1.05-1c2.05-2.64,1.52-5.15-1.67-8.09l-.31-.29L390.44,137c-2.74,3-3.45,4.65-.8,7.1,3.08,2.85,8.23,3.59,13.44,1.4l.59,1.33-8.85,4.65-20-18.49Z" transform="translate(-57.21 -56.92)"/><path d="M415.29,154.84l.9,1.23c-5.48,6.31-6.68,11.85-3.92,15.62,1.8,2.46,4.42,2.9,6.85,1.13,3-2.2,2.13-5,1-10.07-.62-2.79-1.38-5.36-.73-8.26a9.22,9.22,0,0,1,3.72-5.56c5-3.68,11.75-2.33,16.19,3.74a30.6,30.6,0,0,1,4,8.32l-7.92,5.79-.76-1c4.26-5.24,5.26-9.27,3-12.31-1.72-2.34-4.41-2.79-6.52-1.25-1.89,1.38-2.44,3.61-1.61,6.84,1,3.83,2,6.58,2,8.49.15,4.15-.91,6.81-4,9.06-5.46,4-12,2.64-17-4.24a31.94,31.94,0,0,1-5-10.34Z" transform="translate(-57.21 -56.92)"/></g></g></svg>