<svg xmlns="http://www.w3.org/2000/svg" viewBox="0 0 386.06 323.54"><title>theholmes_logo_vector</title><g id="Colour"><g id="Moustache"><path id="Right" d="M249.71,345.06c9-8,16.5-9.81,21.4-10.09,9.56-.56,19.88,5.32,40.13,17.09,12.4,7.21,17.18,10.8,24.22,9.74,7.24-1.09,12.52-6.43,15.91-10.92,1.31,9-.61,14.4-2.85,17.8-11.07,16.83-50.68,15.52-98.81-4.4Z" transform="translate(-57.21 -56.92)" style="fill:#8c6239"/><path id="Left" d="M250,345.18c-9-8-16.49-9.81-21.39-10.1-9.56-.55-19.88,5.33-40.13,17.1-12.4,7.21-17.18,10.79-24.22,9.73-7.24-1.08-12.52-6.43-15.91-10.92-1.31,9,.61,14.4,2.85,17.81,11.07,16.82,50.68,15.52,98.8-4.4Z" transform="translate(-57.21 -56.92)" style="fill:#8c6239"/><path id="Shadow" d="M249.71,345.06a45.58,45.58,0,0,1,14.27-1.6c9.07.47,16.08,3.7,39.27,17.63,15.88,9.54,21.55,13.4,30.47,12.91,2.77-.15,8.52-.55,12.95-4.89,6.71-6.58,4.94-16.91,4.7-18.23a38.34,38.34,0,0,1-3,3.48,29.35,29.35,0,0,1-3.9,3.52,20,20,0,0,1-8.18,3.76,17.38,17.38,0,0,1-4.17.3,17,17,0,0,1-6.48-1.83,91.54,91.54,0,0,1-9.55-5.26c-5.66-3.57-10.23-6.07-17.44-10-2.92-1.59-4.38-2.39-6.15-3.29-13.18-6.66-18.63-6.84-21.87-6.56a25.89,25.89,0,0,0-3.06.47A36.37,36.37,0,0,0,249.71,345.06Z" transform="translate(-57.21 -56.92)" style="fill:#754c24"/></g><g id="Hat"><path id="Top" d="M173.61,218.59c2.62-41.11,36.57-73.5,77-74.32,41.58-.84,77.45,32,80.17,74.32a379.77,379.77,0,0,1-80.17,8.22A380,380,0,0,1,173.61,218.59Z" transform="translate(-57.21 -56.92)" style="fill:#333"/><path id="TopShadow" d="M218.06,152.19c27.83-7.8,56.94-.39,75,19.37C310.83,191,311.11,214.82,311,221l20-2a77.3,77.3,0,0,0-2-14,79.88,79.88,0,0,0-18.7-35.08,80.92,80.92,0,0,0-20.83-16.29,79.37,79.37,0,0,0-10.62-4.78,78.77,78.77,0,0,0-40.08-3.44A77.37,77.37,0,0,0,218.06,152.19Z" transform="translate(-57.21 -56.92)" style="fill:#262626"/><g id="Base"><path d="M365,241a11.76,11.76,0,0,1-9.91,11.31S295.74,260.16,253,260c-43.2-.16-103.1-8.6-103.1-8.6a11.51,11.51,0,0,1-9.63-11.4l.46-17a8.57,8.57,0,0,1,10.15-8.44S209,223.74,252,224c43.79.26,103.11-8.53,103.11-8.53A8.39,8.39,0,0,1,365,224Z" transform="translate(-57.21 -56.92)" style="fill:#4d4d4d"/></g><path id="Shadow-2" data-name="Shadow" d="M365,224.8A727.16,727.16,0,0,1,252,233a726.82,726.82,0,0,1-111.24-9.18,10,10,0,0,1,.06-1.75,9,9,0,0,1,1.25-3.82,8.69,8.69,0,0,1,7.45-4.1c14.73,2.17,27.26,3.74,36.85,4.85,14.81,1.71,27.7,3.17,45.15,4.09,5.82.31,12.58.7,21,.73,5.43,0,9.41-.11,13.26-.23,14.53-.46,25.83-1.39,37.56-2.37,6.46-.54,11.05-.93,17.33-1.63,3.65-.4,3.92-.48,14.93-1.77,3-.35,4.5-.53,6.86-.85,2.17-.29,3.34-.47,5.84-.77l2.39-.31c1.63-.23,2.13-.34,3.52-.51a19.12,19.12,0,0,1,2.47-.24,8.07,8.07,0,0,1,6.54,3.14A9.38,9.38,0,0,1,365,224.8Z" transform="translate(-57.21 -56.92)" style="fill:#3b3b3b"/><path d="M355.15,225.59a85.85,85.85,0,0,1,.37,12.11,84.94,84.94,0,0,1-1.92,14.8l1.18-.15.61-.08c.48-.09.85-.18,1.08-.24a12.08,12.08,0,0,0,1.23-.42,10,10,0,0,0,1.19-.57,12,12,0,0,0,2.16-1.54,13.24,13.24,0,0,0,2.81-3.64,11.86,11.86,0,0,0,.81-2.25,12.66,12.66,0,0,0,.35-2.78c.07-2.47,0-4.44,0-5.53,0-.54,0-2.11,0-5.26,0-1.51,0-3.51,0-5.87Z" transform="translate(-57.21 -56.92)" style="fill:#3b3b3b"/></g><g id="Cup"><g id="Handle"><rect x="345.89" y="285.56" width="16.22" height="64.89" rx="5" transform="translate(-141.02 447.52) rotate(-65)" style="fill:#8c6239"/></g><path id="Shadow-3" data-name="Shadow" d="M325.33,302.44l52.78,24.78a12.82,12.82,0,0,1-1.22,3.89,13,13,0,0,1-4,4.66l1.42.67.66.3a6.49,6.49,0,0,0,2.4.67,5,5,0,0,0,2.09-.38,5.16,5.16,0,0,0,1.71-1.17,7.3,7.3,0,0,0,1.29-2.17c1.15-2.37.92-2.07,1.62-3.48a9,9,0,0,0,.94-2.31,5.39,5.39,0,0,0,.13-1.68A5.75,5.75,0,0,0,384,323.5c-2-2.54-20.24-9.71-27.24-13.17-3.39-1.67-22-11.31-25.55-11.7a5.85,5.85,0,0,0-2.82.38,6.62,6.62,0,0,0-.67.38A6.38,6.38,0,0,0,325.33,302.44Z" transform="translate(-57.21 -56.92)" style="fill:#754c24"/><circle id="Latte" cx="242.26" cy="233.2" r="40.67" style="fill:#ebc481"/><path id="Shadow-4" data-name="Shadow" d="M290.67,250.33c16.94,2,31.27,13.17,36.7,28.72,6.24,17.88-.38,38.42-16.48,50.06,2.49-.73,17.22-5.34,25-20.78,8.41-16.67,1.88-32.44,1-34.51s-7.48-16.55-24.13-22.26A41.41,41.41,0,0,0,290.67,250.33Z" transform="translate(-57.21 -56.92)" style="fill:#d6aa60"/></g></g><g id="Logo"><g id="Face"><circle id="Eye" cx="145.95" cy="240.91" r="12.28"/></g><g id="Cup-2" data-name="Cup"><g id="Latte-2" data-name="Latte"><path id="Layer1" d="M300,273.79c-5.24-4.13-8-8.61-6.8-11.34.56-1.27,2.15-2.55,3.4-2.27,2,.43,2.16,4.54,3.4,4.54s1.43-4.11,3.41-4.54c1.25-.28,2.84,1,3.4,2.27C308,265.18,305.21,269.66,300,273.79Z" transform="translate(-57.21 -56.92)" style="fill:#fcf2e1"/><path id="Layer2" d="M300,283.58a14.2,14.2,0,0,1-4.54-4.11c-2.4-3.42-3-7.62-2.27-8,.95-.43,3.18,6.26,6.81,6.26s5.85-6.69,6.8-6.26c.73.33.13,4.53-2.27,8A14.28,14.28,0,0,1,300,283.58Z" transform="translate(-57.21 -56.92)" style="fill:#fcf2e1"/><path id="Layer3" d="M300,291.86a13,13,0,0,1-5.68-3.31c-3.42-3.48-4.3-8.62-3.4-9.08,1.18-.62,3.92,6.83,8.76,6.94s8.11-7.64,9.39-6.94c.94.51,0,5.63-3.4,9.08A13,13,0,0,1,300,291.86Z" transform="translate(-57.21 -56.92)" style="fill:#fcf2e1"/><path id="Layer4" d="M300,301.81a22.7,22.7,0,0,1-8.53-5.94c-3.72-4.18-5.72-9.74-4.74-10.42,1.4-1,6.05,8.53,13.27,8.53s11.86-9.49,13.26-8.53c1,.68-1,6.24-4.74,10.42A22.68,22.68,0,0,1,300,301.81Z" transform="translate(-57.21 -56.92)" style="fill:#fcf2e1"/><path id="Layer5" d="M290.49,306.3a66.86,66.86,0,0,1-5.68-3.79c-6.91-6-7.48-16.78-6.63-17.06s1.68,7.34,8.52,13.27c1.76,1.52,6.28,5.43,12.9,5.56,7,.13,12-4.12,13.63-5.56,6.84-5.92,7.69-13.53,8.53-13.27s.93,11-5.69,17.06c-1.14,1-3.29,2.27-7.58,4.73s-6.68,3.82-8.52,3.79C299.26,311,297.75,310.9,290.49,306.3Z" transform="translate(-57.21 -56.92)" style="fill:#fcf2e1"/><path id="Layer6" d="M289.54,317.66c-3.91-1.85-12.06-5.73-16.1-14.21-4.94-10.34-1-21.81,0-21.79s-1.83,12.75,5.68,22.74A26.47,26.47,0,0,0,300,314.82a26,26,0,0,0,20.84-10.42c7.13-10,3.44-22.63,4.74-22.74s5.82,10.68,1.89,20.85c-3.55,9.19-12.34,13.37-16.1,15.15a22.24,22.24,0,0,1-21.8,0Z" transform="translate(-57.21 -56.92)" style="fill:#fcf2e1"/></g></g></g><g id="Text"><g id="Curved"><path d="M64.72,164.09l-.94.6-6.57-7.4a7.86,7.86,0,0,0,3.24-2.79l9.78-12.72A7.71,7.71,0,0,0,72.08,138l8.86,4.42-.34,1.06c-4.54-1.21-7.81-.54-10.38,1.86l20,15.42c2.34,1.8,3.53,1.82,5.51-.44l1.06.81L85.9,175.29l-1.05-.82c1.67-2.49,1.38-3.67-1-5.47l-20-15.42C62.17,156.78,62.44,160.18,64.72,164.09Z" transform="translate(-57.21 -56.92)"/><path d="M118.41,137.61l.87,1-13,11.07-.87-1c2.16-2.09,2.08-3.28.17-5.53l-14.3-16.72c-1.92-2.24-3.08-2.5-5.49-.7l-.86-1,13-11.11.87,1c-1.57,1.91-1.22,3.05.45,5l5.17,6.05,6-5.14-5.17-6c-1.67-2-2.75-2.48-4.87-1.23l-.87-1,13-11.11.86,1c-2.15,2.1-2.08,3.29-.16,5.53l14.3,16.72c1.92,2.25,3.08,2.51,5.48.7l.87,1-13,11.08-.86-1c1.56-1.91,1.25-3.08-.42-5l-7.92-9.27-6.08,5.2,7.92,9.27C115.25,138.31,116.29,138.8,118.41,137.61Z" transform="translate(-57.21 -56.92)"/><path d="M142.34,119.19c2.56-1.58,2.74-2.75,1.35-5.36L133.35,94.42c-1.41-2.65-2.51-3.09-5.2-1.87l-.63-1.18,18.41-9.8c2.06-1.1,3.26-2.18,3.62-3.34a37.11,37.11,0,0,0,6.53,6.4l-1,1.11c-4.5-2.46-8.09-2.43-12.38-.15l-1.72.92,5.48,10.29c4.14-2.26,5.58-4.32,4.38-7l1.26-.67,4.92,9.24-1.26.68C154,96.27,151.43,96,147.61,98l-.38.2,4.66,8.74c1.9,3.57,3.25,4.79,6.44,3.09,3.7-2,6.1-6.59,5.74-12.22l1.44-.13,1.49,9.89-24,12.81Z" transform="translate(-57.21 -56.92)"/><path d="M220.33,90.84l.19,1.32-16.88,2.39-.19-1.32c3-.61,3.52-1.65,3.1-4.57l-3.09-21.79c-.42-2.92-1.26-3.76-4.25-3.53L199,62l16.92-2.4.19,1.32c-2.34.76-2.66,1.91-2.3,4.46L215,73.27l7.83-1.11-1.12-7.87c-.36-2.55-1-3.57-3.45-3.65L218,59.32,235,56.92l.18,1.32c-2.94.61-3.51,1.65-3.1,4.57l3.1,21.79c.41,2.92,1.25,3.76,4.25,3.53l.19,1.32-16.88,2.4-.19-1.32c2.34-.77,2.71-1.93,2.35-4.47L223.13,74l-7.92,1.12,1.72,12.07C217.29,89.73,217.91,90.7,220.33,90.84Z" transform="translate(-57.21 -56.92)"/><path d="M256.14,86.21a17.18,17.18,0,0,1-4.27-13.34A17.63,17.63,0,1,1,287,76a18,18,0,0,1-30.84,10.22Zm17.14,1.33c1.38-2.08,2-6.23,2.56-12.59,1-10.77.71-15.62-5.22-16.15s-7,4.26-8,15c-.57,6.36-.7,10.6.29,12.84A5.58,5.58,0,0,0,267.86,90,5.47,5.47,0,0,0,273.28,87.54Z" transform="translate(-57.21 -56.92)"/><path d="M305.46,64.74l.39-1.27L323,68.77l-.4,1.27c-2.92-.7-3.89,0-4.76,2.81L312,91.73c-1.11,3.59-1.11,5.34,1.71,6.22,3.41,1,8.49-.51,12.67-5.15l1.12.89L321,102.55l-24.84-7.7.4-1.27c2.92.71,3.89,0,4.76-2.81l6.51-21C308.67,66.93,308.27,65.81,305.46,64.74Z" transform="translate(-57.21 -56.92)"/><path d="M332.21,105c3,1.49,4.87.11,7.7-4.14l9.69-14.48a9.84,9.84,0,0,0,.64-1c1.42-2.47,1.32-4-.68-5.22l.66-1.16,12.06,6.93-3.83,15,11.22-10.74,12.1,7-.66,1.16c-2.52-1.17-3.52-.87-4.73,1.24-.66,1.15-1.09,2-1.36,2.56l-7.88,16c-1.89,3.86-2.42,5.25.74,7.4l-.66,1.16-15.82-9.09.67-1.16c2.43,1,3.53.93,4.59-.93.07-.12.5-.86,1.23-2.31L366.65,96,346,115.37l5-27.79-9.55,14.23c-.44.68-.93,1.33-1.28,2-1.71,3-1.56,4.82.77,6.21l-.67,1.16-8.67-5Z" transform="translate(-57.21 -56.92)"/><path d="M375.73,132c2.33,1.9,3.5,1.68,5.5-.48l14.94-16.15c2-2.21,2.09-3.39.06-5.53l.9-1,15.31,14.16c1.72,1.58,3.13,2.37,4.34,2.32a36.79,36.79,0,0,0-3.89,8.28l-1.37-.56c.85-5-.36-8.44-3.93-11.74L406.16,120l-7.92,8.56c3.49,3.17,5.91,3.85,8,1.85l1.05,1-7.11,7.69-1.05-1c2.05-2.64,1.52-5.15-1.67-8.09l-.31-.29L390.44,137c-2.74,3-3.45,4.65-.8,7.1,3.08,2.85,8.23,3.59,13.44,1.4l.59,1.33-8.85,4.65-20-18.49Z" transform="translate(-57.21 -56.92)"/><path d="M415.29,154.84l.9,1.23c-5.48,6.31-6.68,11.85-3.92,15.62,1.8,2.46,4.42,2.9,6.85,1.13,3-2.2,2.13-5,1-10.07-.62-2.79-1.38-5.36-.73-8.26a9.22,9.22,0,0,1,3.72-5.56c5-3.68,11.75-2.33,16.19,3.74a30.6,30.6,0,0,1,4,8.32l-7.92,5.79-.76-1c4.26-5.24,5.26-9.27,3-12.31-1.72-2.34-4.41-2.79-6.52-1.25-1.89,1.38-2.44,3.61-1.61,6.84,1,3.83,2,6.58,2,8.49.15,4.15-.91,6.81-4,9.06-5.46,4-12,2.64-17-4.24a31.94,31.94,0,0,1-5-10.34Z" transform="translate(-57.21 -56.92)"/></g></g></svg>