<svg xmlns="http://www.w3.org/2000/svg" viewBox="0 0 321.34 308.58"><title>theholmes_face</title><g id="Face"><circle id="Eye" cx="79.55" cy="195.52" r="14.5"/><g id="Moustache"><path id="Right" d="M236.17,305.56c11.21-10,20.59-12.24,26.71-12.59,11.92-.69,24.8,6.64,50.07,21.33,15.48,9,21.44,13.47,30.22,12.15,9-1.36,15.63-8,19.86-13.63,1.63,11.18-.76,18-3.56,22.22-13.81,21-63.24,19.37-123.3-5.49Z" transform="translate(-91.95 -49.98)" fill="#8c6239"/><path id="Left" d="M236.49,305.71c-11.21-10-20.59-12.24-26.7-12.6-11.93-.69-24.81,6.64-50.08,21.33-15.48,9-21.44,13.47-30.22,12.15-9-1.35-15.63-8-19.85-13.63-1.64,11.18.76,18,3.55,22.23,13.82,21,63.24,19.36,123.3-5.5Z" transform="translate(-91.95 -49.98)" fill="#8c6239"/><path id="Shadow" d="M238,310a40.6,40.6,0,0,1,17-5c13.41-.76,20.48,6.21,49,22,15.37,8.51,25.62,13.3,39,14,9.85.52,14.25-1.56,17-4,8.58-7.62,5.16-22.49,4.82-23.89-6.57,9-12.94,11.88-17.55,12.89-15.1,3.31-24.15-10-56.89-24.59-20.29-9.06-29.08-8-35.56-5.63C246.41,298.86,241.07,305.3,238,310Z" transform="translate(-91.95 -49.98)" fill="#754c24"/><path id="Left-2" data-name="Left" d="M236.94,306.33c-6.51-9.23-13-12.45-17.64-13.72-19.14-5.26-47.81,11.39-75.46,27.44-3.13,1.82-9,5.27-15.68,3.92-10.09-2-15.88-13.73-18.61-20.58-5.77,20.46-.55,30.54,2,34.3,13.6,20.43,59.1,22.52,110.73-3.92" transform="translate(-91.95 -49.98)" fill="none" stroke="#000" stroke-linecap="round" stroke-linejoin="round" stroke-width="10"/><path id="Right-2" data-name="Right" d="M236.49,306.58c6.51-9.22,13-12.44,17.64-13.72,19.13-5.26,47.8,11.39,75.45,27.44,3.14,1.82,9,5.28,15.68,3.92,10.09-2,15.89-13.72,18.62-20.58,5.76,20.47.54,30.54-2,34.3-13.61,20.43-59.11,22.52-110.73-3.92" transform="translate(-91.95 -49.98)" fill="none" stroke="#000" stroke-linecap="round" stroke-linejoin="round" stroke-width="10"/></g></g><g id="Hat"><g id="Top"><path id="Top-2" data-name="Top" d="M141.21,147.74C144.48,96.44,186.84,56,237.27,55c51.88-1,96.65,39.94,100,92.74a473.37,473.37,0,0,1-100,10.26A473.59,473.59,0,0,1,141.21,147.74Z" transform="translate(-91.95 -49.98)" fill="#333" stroke="#000" stroke-linecap="round" stroke-linejoin="round" stroke-width="10"/><path id="TopShadow" d="M197.4,70.12c33.74-9,68.45-.43,89.87,22.88,17.27,18.79,20.3,41.08,21,50l23.27-2c-.25-1.94-.67-4.66-1.39-7.87A94.79,94.79,0,0,0,308.27,91a98,98,0,0,0-25.41-19.87,95.06,95.06,0,0,0-12.95-5.83A91.74,91.74,0,0,0,220,62,90.8,90.8,0,0,0,197.4,70.12Z" transform="translate(-91.95 -49.98)" fill="#262626"/></g><g id="Bottom"><g id="Line0"><path d="M259.27,199c-16.4.59-33.69.66-51.8,0-39.56-1.43-97.32-10.46-97.32-10.46A12.09,12.09,0,0,1,100.27,177V152a8.35,8.35,0,0,1,9.88-8.49S184.41,154.82,237.27,155c55,.18,132.11-11.5,132.11-11.5a8.36,8.36,0,0,1,9.89,8.5v26a13.69,13.69,0,0,1-9.68,12.53L337.27,199" transform="translate(-91.95 -49.98)" fill="#4d4d4d"/></g><path id="Shadow-2" data-name="Shadow" d="M98,153a938.74,938.74,0,0,0,145.6,12.7A938.76,938.76,0,0,0,355,160.09,47.5,47.5,0,0,1,356,173.56a48.19,48.19,0,0,1-5.48,19.4l19.66-3.27a81.54,81.54,0,0,0,3-46.69,807.06,807.06,0,0,1-128.78,11.15A807,807,0,0,1,105.71,143Z" transform="translate(-91.95 -49.98)" fill="#3b3b3b"/><line id="Line4" x1="24.05" y1="140.02" x2="10.05" y2="138.02" stroke-width="10" stroke="#000" stroke-linecap="round" stroke-linejoin="round" fill="none"/><path id="Line3" d="M256,198c-16.09.2-33,0-50.59-.72-18.53-.76-36.23-2-53-3.64" transform="translate(-91.95 -49.98)" fill="none" stroke="#000" stroke-linecap="round" stroke-linejoin="round" stroke-width="10"/><path id="Line2" d="M329,195q8.37-.75,17.09-1.76Q358.42,191.8,370,190" transform="translate(-91.95 -49.98)" fill="none" stroke="#000" stroke-linecap="round" stroke-linejoin="round" stroke-width="10"/><g id="Line1"><path d="M371,189a65.51,65.51,0,0,0,5-22c.58-11.51-1-16.46-1-16.46a12.61,12.61,0,0,0-12.94-8.37S286,151.17,234,151c-49.47-.16-122.07-8.82-122.07-8.82a13.68,13.68,0,0,0-13.58,8.13S97.4,152.72,97,162a57.61,57.61,0,0,0,5,26" transform="translate(-91.95 -49.98)" fill="none" stroke="#000" stroke-linecap="round" stroke-linejoin="round" stroke-width="10"/></g></g></g><g id="Cup"><g id="Latte"><circle id="Shadow-3" data-name="Shadow" cx="206.32" cy="187.02" r="50.75" fill="#ebc481"/><path id="Latte-2" data-name="Latte" d="M288,188.84c20.66,2,38.31,15.45,45.09,34.35,7.73,21.53,0,46.38-19.26,60.59,28.72-10.94,41.65-42.8,31.11-67.11C336.19,196.49,312.42,184.14,288,188.84Z" transform="translate(-91.95 -49.98)" fill="#d6aa60"/><path id="Layer1" d="M298.76,216.69c-6.33-5-9.68-10.4-8.22-13.69.68-1.53,2.6-3.07,4.11-2.74,2.39.52,2.61,5.48,4.11,5.48s1.72-5,4.11-5.48c1.51-.33,3.43,1.21,4.11,2.74C308.44,206.29,305.09,211.71,298.76,216.69Z" transform="translate(-91.95 -49.98)" fill="#fcf2e1"/><path id="Layer2" d="M298.77,228.5a17.14,17.14,0,0,1-5.49-5c-2.89-4.12-3.61-9.19-2.74-9.59,1.15-.52,3.85,7.55,8.23,7.55s7.06-8.07,8.21-7.55c.87.4.15,5.47-2.74,9.59A17.34,17.34,0,0,1,298.77,228.5Z" transform="translate(-91.95 -49.98)" fill="#fcf2e1"/><path id="Layer3" d="M298.77,238.5a15.72,15.72,0,0,1-6.86-4c-4.12-4.2-5.19-10.4-4.11-11,1.44-.74,4.74,8.25,10.58,8.38,6,.14,9.79-9.22,11.34-8.38,1.13.62,0,6.8-4.11,11A15.84,15.84,0,0,1,298.77,238.5Z" transform="translate(-91.95 -49.98)" fill="#fcf2e1"/><path id="Layer4" d="M298.77,250.5a27.42,27.42,0,0,1-10.3-7.16c-4.49-5.05-6.91-11.76-5.72-12.58,1.7-1.16,7.3,10.29,16,10.29s14.32-11.45,16-10.29c1.19.82-1.23,7.53-5.72,12.58A27.38,27.38,0,0,1,298.77,250.5Z" transform="translate(-91.95 -49.98)" fill="#fcf2e1"/><path id="Layer5" d="M287.33,255.92a74.54,74.54,0,0,1-6.86-4.58c-8.33-7.25-9-20.24-8-20.58s2,8.86,10.29,16c2.13,1.84,7.58,6.56,15.57,6.71,8.51.17,14.44-5,16.45-6.71,8.25-7.14,9.28-16.32,10.29-16,1.19.37,1.13,13.33-6.86,20.58-1.38,1.26-4,2.75-9.15,5.72-5.35,3.07-8.07,4.61-10.29,4.58C297.91,261.62,296.09,261.48,287.33,255.92Z" transform="translate(-91.95 -49.98)" fill="#fcf2e1"/><path id="Layer6" d="M286.18,269.64c-4.72-2.24-14.55-6.92-19.43-17.15-6-12.48-1.26-26.32,0-26.3s-2.21,15.39,6.86,27.44a31.93,31.93,0,0,0,25.15,12.58,31.32,31.32,0,0,0,25.16-12.58c8.6-12,4.15-27.31,5.72-27.44s7,12.88,2.28,25.15c-4.28,11.1-14.89,16.14-19.44,18.3a26.88,26.88,0,0,1-26.3,0Z" transform="translate(-91.95 -49.98)" fill="#fcf2e1"/></g><g id="Handle"><path d="M345.43,260.55a9.9,9.9,0,0,1,13.24-4.76L401,276a8.29,8.29,0,0,1,3.35,12.55l-1.15,1.67a12.59,12.59,0,0,1-14.82,4.2L348.81,277a9.79,9.79,0,0,1-4.93-13.1Z" transform="translate(-91.95 -49.98)" fill="#8c6239"/></g><path id="Shadow-4" data-name="Shadow" d="M350,262c21.47,10.68,37.5,18.76,44,22,1.14.57,3.81,1.9,4,4,.24,2.68-3.7,5-5.07,5.78l7.43,3.52,5.76-13.08-52.59-27.55Z" transform="translate(-91.95 -49.98)" fill="#754c24"/><g id="Rim"><path d="M298.27,188a49,49,0,1,1-49,49,49.05,49.05,0,0,1,49-49m0-10a59,59,0,1,0,59,59,59,59,0,0,0-59-59Z" transform="translate(-91.95 -49.98)"/></g><g id="Handle-2" data-name="Handle"><path d="M351.81,252.39l51,25.79a10,10,0,0,1,4.41,13.43l-.9,1.79a10,10,0,0,1-13.44,4.41l-51-25.79" transform="translate(-91.95 -49.98)" fill="none" stroke="#000" stroke-linecap="round" stroke-linejoin="round" stroke-width="10"/></g></g></svg>